<svg width="20" height="20" viewBox="0 0 20 20" fill="none" xmlns="http://www.w3.org/2000/svg">
    <g clip-path="url(#clip0_1401_12814)">
        <path d="M10 20.0001C15.5228 20.0001 20 15.5229 20 10.0001C20 4.47721 15.5228 6.10352e-05 10 6.10352e-05C4.47715 6.10352e-05 0 4.47721 0 10.0001C0 15.5229 4.47715 20.0001 10 20.0001Z" fill="#F0F0F0"/>
        <path d="M2.06742 3.91089C1.28191 4.93288 0.689609 6.11081 0.344727 7.39046H5.54699L2.06742 3.91089Z" fill="#0052B4"/>
        <path d="M19.6558 7.3906C19.3109 6.11099 18.7186 4.93306 17.9331 3.91107L14.4536 7.3906H19.6558Z" fill="#0052B4"/>
        <path d="M0.344727 12.6086C0.689649 13.8882 1.28195 15.0661 2.06742 16.0881L5.54688 12.6086H0.344727Z" fill="#0052B4"/>
        <path d="M16.0879 2.06655C15.0659 1.28104 13.888 0.688733 12.6084 0.343811V5.54604L16.0879 2.06655Z" fill="#0052B4"/>
        <path d="M3.91162 17.9315C4.93361 18.717 6.11155 19.3093 7.39116 19.6542V14.452L3.91162 17.9315Z" fill="#0052B4"/>
        <path d="M7.39111 0.343811C6.1115 0.688733 4.93357 1.28104 3.91162 2.06651L7.39111 5.54599V0.343811Z" fill="#0052B4"/>
        <path d="M12.6084 19.6542C13.888 19.3093 15.0659 18.717 16.0879 17.9315L12.6084 14.452V19.6542Z" fill="#0052B4"/>
        <path d="M14.4536 12.6086L17.9331 16.0881C18.7186 15.0662 19.3109 13.8882 19.6558 12.6086H14.4536Z" fill="#0052B4"/>
        <path d="M19.9154 8.69572H11.3044H11.3044V0.0847095C10.8774 0.0291235 10.4421 6.10352e-05 10 6.10352e-05C9.55785 6.10352e-05 9.12262 0.0291235 8.69566 0.0847095V8.69565V8.69569H0.0846484C0.0290625 9.12268 0 9.55799 0 10.0001C0 10.4422 0.0290625 10.8774 0.0846484 11.3044H8.69559H8.69563V19.9154C9.12262 19.971 9.55785 20.0001 10 20.0001C10.4421 20.0001 10.8774 19.971 11.3043 19.9154V11.3045V11.3044H19.9154C19.9709 10.8774 20 10.4422 20 10.0001C20 9.55799 19.9709 9.12268 19.9154 8.69572Z" fill="#C63927"/>
        <path d="M12.6089 12.6094L17.0712 17.0718C17.2765 16.8666 17.4722 16.6521 17.659 16.4298L13.8387 12.6094H12.6089V12.6094Z" fill="#C63927"/>
        <path d="M7.39109 12.6094H7.39102L2.92871 17.0717C3.13387 17.2769 3.34836 17.4727 3.5707 17.6595L7.39109 13.839V12.6094Z" fill="#C63927"/>
        <path d="M7.39098 7.39099V7.39091L2.92863 2.92853C2.7234 3.13368 2.52762 3.34818 2.34082 3.57052L6.16125 7.39095H7.39098V7.39099Z" fill="#C63927"/>
        <path d="M12.6089 7.39187L17.0713 2.92945C16.8661 2.72421 16.6516 2.52843 16.4293 2.34167L12.6089 6.1621V7.39187Z" fill="#C63927"/>
    </g>
    <defs>
        <clipPath id="clip0_1401_12814">
            <rect width="20" height="20" fill="white"/>
        </clipPath>
    </defs>
</svg>
