<svg width="20" height="20" viewBox="0 0 20 20" fill="none" xmlns="http://www.w3.org/2000/svg">
    <g clip-path="url(#clip0_1401_12808)">
        <path d="M10 20.0001C15.5228 20.0001 20 15.5229 20 10.0001C20 4.47721 15.5228 6.10352e-05 10 6.10352e-05C4.47715 6.10352e-05 0 4.47721 0 10.0001C0 15.5229 4.47715 20.0001 10 20.0001Z" fill="#F0F0F0"/>
        <path d="M19.378 13.4778C19.78 12.3945 20 11.2228 20 9.9996C20 8.7764 19.78 7.60468 19.378 6.52136H0.621992C0.220039 7.60468 0 8.7764 0 9.9996C0 11.2228 0.220039 12.3945 0.621992 13.4778L10 14.3474L19.378 13.4778Z" fill="#0052B4"/>
        <path d="M10.0001 19.9996C14.2997 19.9996 17.9652 17.2859 19.3781 13.4778H0.62207C2.035 17.2859 5.70043 19.9996 10.0001 19.9996Z" fill="#C63927"/>
    </g>
    <defs>
        <clipPath id="clip0_1401_12808">
            <rect width="20" height="20" fill="white"/>
        </clipPath>
    </defs>
</svg>
