<svg width="319" height="104" viewBox="0 0 319 104" fill="none" xmlns="http://www.w3.org/2000/svg">
    <path d="M135.227 101.093L139 85.9161L131.171 83.9121M135.227 101.093L132.712 111.21L90.7393 100.373L93.3764 90.4091M135.227 101.093L123.793 98.1739M93.3764 90.4091L97.3847 75.2637L99.7855 75.8783M93.3764 90.4091L104.406 93.2247M136.071 97.9042L125.349 95.1671M94.2202 87.2206L104.761 89.9114M136.862 94.915L125.432 91.9971M95.0113 84.2314L106.219 87.0924M105.388 77.3122L110.02 72.7373L128.855 77.4964L130.013 80.7042M105.388 77.3122L131.171 83.9121M105.388 77.3122L104.187 77.0049M131.171 83.9121L130.013 80.7042M104.187 77.0049L104.781 74.1053L100.294 73.1436L99.7855 75.8783M104.187 77.0049L99.7855 75.8783M130.013 80.7042L118.587 78.0752" stroke="#667085" stroke-width="1.2" stroke-linecap="round" stroke-linejoin="round"/>
    <circle cx="115.146" cy="92.6084" r="9.86415" transform="rotate(27.3526 115.146 92.6084)" stroke="#667085" stroke-width="1.2" stroke-linecap="round" stroke-linejoin="round"/>
    <path d="M121.048 95.6613C119.362 98.9207 115.353 100.196 112.094 98.51C108.835 96.8239 107.559 92.8149 109.245 89.5556C110.931 86.2963 114.94 85.0209 118.2 86.7069C121.459 88.393 122.735 92.402 121.048 95.6613Z" stroke="#667085" stroke-width="1.2" stroke-linecap="round" stroke-linejoin="round"/>
    <path d="M301.227 21.0927L305 5.91608L297.171 3.91213M301.227 21.0927L298.712 31.2105L256.739 20.3732L259.376 10.4091M301.227 21.0927L289.793 18.1739M259.376 10.4091L263.385 -4.73631L265.786 -4.12175M259.376 10.4091L270.406 13.2247M302.071 17.9042L291.349 15.1671M260.22 7.22058L270.761 9.91136M302.862 14.915L291.432 11.9971M261.011 4.23136L272.219 7.09243M271.388 -2.68777L276.02 -7.26271L294.855 -2.50364L296.013 0.704243M271.388 -2.68777L297.171 3.91213M271.388 -2.68777L270.187 -2.99505M297.171 3.91213L296.013 0.704243M270.187 -2.99505L270.781 -5.89468L266.294 -6.85639L265.786 -4.12175M270.187 -2.99505L265.786 -4.12175M296.013 0.704243L284.587 -1.92477" stroke="#667085" stroke-width="1.2" stroke-linecap="round" stroke-linejoin="round"/>
    <circle cx="281.146" cy="12.6085" r="9.86415" transform="rotate(27.3526 281.146 12.6085)" stroke="#667085" stroke-width="1.2" stroke-linecap="round" stroke-linejoin="round"/>
    <path d="M287.048 15.6613C285.362 18.9207 281.353 20.1961 278.094 18.51C274.835 16.8239 273.559 12.8149 275.245 9.55559C276.931 6.29626 280.94 5.02088 284.2 6.70693C287.459 8.39299 288.735 12.402 287.048 15.6613Z" stroke="#667085" stroke-width="1.2" stroke-linecap="round" stroke-linejoin="round"/>
    <circle cx="253.733" cy="117.731" r="11.0716" transform="rotate(-37.7268 253.733 117.731)" stroke="#98A2B3" stroke-width="1.2" stroke-linecap="round" stroke-linejoin="round"/>
    <path d="M236.639 121.288C237.594 120.549 240.167 119.271 242.819 120.068M264.544 113.947L268.003 113.815L268.7 117.347L265.241 117.479M214.217 123.877L210.439 124.256L211.064 128.352L214.842 127.973M221.137 123.613L223.725 119.066M222.644 127.535L228.068 118.759M226.987 127.228L229.575 122.681M249.955 118.11L252.543 113.563M251.462 122.032L256.886 113.257M255.805 121.726L258.393 117.179" stroke="#98A2B3" stroke-width="1.2" stroke-linecap="round" stroke-linejoin="round"/>
    <path d="M208.584 15.4218H199.327V20.2514H208.584V15.4218Z" fill="#98A2B3"/>
    <path d="M171.959 68.5474H176.789M227.499 68.5474H222.67M222.67 68.5474H176.789M222.67 68.5474V63.3154M222.67 50.8389V63.3154M176.789 68.5474V63.3154M176.789 50.8389V63.3154M176.789 63.3154H182.826M222.67 63.3154H216.23M216.23 63.3154V39.5698M216.23 63.3154H210.998M210.998 39.5698H221.865L199.327 23.8736M210.998 39.5698V63.3154M210.998 39.5698H206.169M210.998 63.3154H206.169M206.169 39.5698V63.3154M206.169 39.5698H192.887M206.169 63.3154H192.887M192.887 39.5698V63.3154M192.887 39.5698H187.655M192.887 63.3154H187.655M187.655 39.5698V63.3154M187.655 39.5698H182.826M187.655 63.3154H182.826M182.826 39.5698H177.191L199.327 23.8736M182.826 39.5698V63.3154M199.327 23.8736V20.2514M199.327 20.2514V15.4218H208.584V20.2514H199.327Z" stroke="#667085" stroke-width="1.2" stroke-linecap="round" stroke-linejoin="round"/>
    <circle cx="199.327" cy="32.7279" r="2.61974" stroke="#667085" stroke-width="1.2" stroke-linecap="round" stroke-linejoin="round"/>
    <path d="M182.629 51.2414C182.629 54.4664 180.014 57.0808 176.789 57.0808C173.564 57.0808 170.95 54.4664 170.95 51.2414C170.95 48.0163 173.564 45.4019 176.789 45.4019C180.014 45.4019 182.629 48.0163 182.629 51.2414Z" fill="#98A2B3" stroke="#667085" stroke-width="1.2" stroke-linecap="round" stroke-linejoin="round"/>
    <path d="M228.509 50.4364C228.509 53.6615 225.895 56.2759 222.67 56.2759C219.445 56.2759 216.83 53.6615 216.83 50.4364C216.83 47.2114 219.445 44.5969 222.67 44.5969C225.895 44.5969 228.509 47.2114 228.509 50.4364Z" fill="#98A2B3" stroke="#667085" stroke-width="1.2" stroke-linecap="round" stroke-linejoin="round"/>
    <path d="M53.5376 75.4511V53.841L38.2438 50.9621L25.7673 48.6136V75.4511H42.2685V61.3647H48.3055V75.4511H53.5376Z" fill="#98A2B3"/>
    <path d="M1.2168 75.4511H4.839M57.9647 75.4511H53.5376M53.5376 75.4511V53.841L38.2438 50.9621M53.5376 75.4511H48.3055M25.7673 75.4511V48.6136L38.2438 50.9621M25.7673 75.4511H4.839M25.7673 75.4511H42.2685M22.95 48.0833L38.2438 50.9621M57.1598 54.5228L38.2438 50.9621M38.2438 50.9621V31.1797M38.2438 31.1797L1.61926 42.4488M38.2438 31.1797L41.0611 30.3748M4.839 75.4511V41.4581M11.6809 54.5228V47.2784H18.1204V54.5228M11.6809 54.5228H18.1204M11.6809 54.5228V61.9684M18.1204 54.5228V61.9684M11.6809 61.9684V69.4141H18.1204V61.9684M11.6809 61.9684H18.1204M30.1944 59.7549H34.2191M32.6092 56.5351H36.6339M42.2685 75.4511V61.3647H48.3055V75.4511M42.2685 75.4511H48.3055" stroke="#667085" stroke-width="1.2" stroke-linecap="round"/>
    <path fill-rule="evenodd" clip-rule="evenodd" d="M310.203 61.8052C311.016 61.2696 311.908 60.9856 312.825 60.9856C316.228 60.9856 318.992 64.8972 319 69.7178C319 74.2299 316.568 77.9549 313.464 78.4012V83.871C313.464 84.2281 313.18 84.5203 312.832 84.5203C312.485 84.5203 312.201 84.2281 312.201 83.871V78.3931C310.124 78.0929 308.299 76.3318 307.352 73.743C306.112 75.1388 304.596 76.0234 302.929 76.2101V83.8629C302.929 84.22 302.645 84.5122 302.298 84.5122C301.95 84.5122 301.666 84.22 301.666 83.8629V76.2101C297.465 75.7475 294.14 70.7403 294.14 64.6294C294.14 58.2182 297.796 53 302.298 53C306.112 53 309.31 56.7574 310.203 61.8052ZM302.929 61.294V74.9116C304.525 74.6925 305.962 73.6537 307.06 72.0793C307.064 72.0753 307.068 72.0692 307.071 72.0631C307.075 72.057 307.079 72.0509 307.083 72.0469C308.378 70.1722 309.192 67.5428 309.192 64.6294C309.192 58.9324 306.096 54.2985 302.298 54.2985C298.499 54.2985 295.404 58.9324 295.404 64.6294C295.404 70.0018 298.16 74.4328 301.666 74.9116V67.413C301.662 67.4089 301.658 67.4069 301.654 67.4049C301.65 67.4028 301.646 67.4008 301.642 67.3967L298.665 63.9396C298.436 63.6718 298.46 63.2579 298.72 63.0225C298.981 62.7872 299.384 62.8115 299.613 63.0793L301.666 65.4653V61.294C301.666 60.9369 301.95 60.6447 302.298 60.6447C302.645 60.6447 302.929 60.9369 302.929 61.294ZM308.284 72.5013C309.034 75.2849 310.834 77.1434 312.825 77.1434C315.533 77.1434 317.729 73.8079 317.736 69.7096C317.736 65.6195 315.541 62.284 312.832 62.284C311.972 62.284 311.142 62.633 310.4 63.2822C310.432 63.7286 310.455 64.1749 310.455 64.6294C310.455 67.6646 309.626 70.4238 308.284 72.5013Z" fill="#667085"/>
    <path d="M294.164 91.2074L294.155 91.2028C291.663 89.9142 289.307 88.6962 289.402 85.6727C289.441 84.4229 290.523 82.6375 292.166 81.1361C292.427 80.9008 292.45 80.4869 292.213 80.2191C291.984 79.9513 291.582 79.927 291.321 80.1623C289.821 81.5338 288.194 83.6925 288.131 85.6321C288.012 89.4869 290.973 91.0207 293.587 92.3679C296.028 93.6258 298.136 94.7213 298.136 97.3426C298.136 101.692 288.304 104.127 284.514 104.703C284.166 104.752 283.929 105.085 283.977 105.442C284.024 105.766 284.293 105.994 284.601 105.994C284.632 105.994 284.664 105.994 284.695 105.986C285.296 105.896 299.4 103.697 299.4 97.3426C299.408 93.9179 296.62 92.4734 294.164 91.2074Z" fill="#667085"/>
    <path d="M301.895 88.3995L301.855 88.3874C298.996 87.5154 296.292 86.6912 295.522 85.8269C294.772 84.9991 294.74 84.0171 295.419 82.8323C295.593 82.5239 295.498 82.1263 295.19 81.9477C294.89 81.7692 294.503 81.8747 294.33 82.1831C293.374 83.8548 293.469 85.4698 294.598 86.7196C295.617 87.8476 298.231 88.6429 301.54 89.6492C306.997 91.3129 313.78 93.3823 313.78 97.3427C313.78 102.865 305.414 105.542 304.868 105.717L304.848 105.724L304.841 105.726C304.509 105.823 304.312 106.188 304.406 106.529C304.485 106.813 304.738 107 305.014 107C305.07 107 305.133 106.992 305.188 106.976L305.19 106.975C305.615 106.847 315.044 103.997 315.044 97.3508C315.036 92.4268 307.801 90.2095 301.96 88.4195L301.895 88.3995Z" fill="#667085"/>
    <path fill-rule="evenodd" clip-rule="evenodd" d="M285.951 98.3894C285.951 98.0324 285.667 97.7402 285.319 97.7402H282.863V86.6383L284.056 87.5959C284.174 87.6933 284.308 87.7339 284.443 87.7339C284.632 87.7339 284.814 87.6446 284.94 87.4823C285.153 87.1983 285.106 86.7925 284.83 86.5734L275.851 79.3588C275.708 79.2452 275.535 79.2046 275.369 79.2289C275.203 79.2046 275.029 79.2452 274.895 79.3588L265.908 86.5734C265.632 86.7925 265.584 87.1983 265.798 87.4823C265.924 87.6446 266.106 87.7339 266.295 87.7339C266.429 87.7339 266.572 87.6852 266.682 87.5959L267.875 86.6383V97.7402H265.632C265.284 97.7402 265 98.0324 265 98.3894C265 98.7465 265.284 99.0387 265.632 99.0387H285.319C285.667 99.0387 285.951 98.7465 285.951 98.3894ZM269.138 85.6239L275.369 80.6167L281.6 85.6239C281.6 85.6279 281.598 85.634 281.596 85.6401C281.595 85.6433 281.594 85.6464 281.593 85.6493C281.592 85.652 281.592 85.6563 281.592 85.6563V97.7321H269.138V85.6645C269.143 85.654 269.142 85.6469 269.14 85.6388C269.139 85.6344 269.138 85.6296 269.138 85.6239Z" fill="#667085"/>
    <path fill-rule="evenodd" clip-rule="evenodd" d="M273.342 68.8096C273.308 68.8115 273.215 68.817 273.079 68.817C272.486 68.817 271.049 68.7034 270.007 67.7295C269.241 67.0154 268.846 66.001 268.846 64.7268C268.838 62.0406 271.223 61.0749 272.85 60.872C273.189 59.0542 274.571 56.368 278.054 56.4735C281.489 56.579 283.092 59.4762 283.574 61.3833C285.208 61.4239 287.641 62.1137 287.862 64.597C287.965 65.79 287.688 66.7719 287.025 67.5104C285.872 68.8008 283.929 68.8089 283.842 68.8089H273.355C273.355 68.8089 273.349 68.8092 273.342 68.8096ZM274.034 61.5375C274.003 61.8621 273.742 62.1218 273.418 62.1299C273.415 62.1301 273.411 62.1303 273.405 62.1306C273.143 62.1439 270.101 62.2986 270.101 64.7106C270.109 65.6033 270.362 66.2931 270.852 66.7557C271.732 67.5898 273.177 67.5083 273.278 67.5026C273.282 67.5024 273.284 67.5023 273.284 67.5023H283.842C283.874 67.5023 285.311 67.4942 286.093 66.6177C286.504 66.1552 286.669 65.5303 286.598 64.7106C286.406 62.5404 283.287 62.6738 283.108 62.6815C283.103 62.6816 283.1 62.6818 283.1 62.6818C282.768 62.7142 282.492 62.4708 282.437 62.138C282.413 61.9595 281.702 57.8774 278.014 57.7638H277.856C274.418 57.7638 274.054 61.3409 274.034 61.5344L274.034 61.5375Z" fill="#667085"/>
    <path d="M275.369 80.6167L269.138 85.6239C269.138 85.6296 269.139 85.6344 269.14 85.6388C269.142 85.6469 269.143 85.654 269.138 85.6645V97.7321H281.592V85.6563C281.592 85.6563 281.592 85.652 281.593 85.6493C281.594 85.6464 281.595 85.6433 281.596 85.6401C281.598 85.634 281.6 85.6279 281.6 85.6239L275.369 80.6167Z" fill="#98A2B3"/>
    <path d="M312.825 77.1434C310.834 77.1434 309.034 75.2849 308.284 72.5013C309.626 70.4238 310.455 67.6646 310.455 64.6294C310.455 64.1749 310.432 63.7286 310.4 63.2822C311.142 62.633 311.972 62.284 312.832 62.284C315.541 62.284 317.736 65.6195 317.736 69.7096C317.729 73.8079 315.533 77.1434 312.825 77.1434Z" fill="#98A2B3"/>
    <path fill-rule="evenodd" clip-rule="evenodd" d="M125.402 -1.49125C125.569 -1.49125 125.735 -1.42445 125.848 -1.29828C125.962 -1.1721 126.023 -1.00881 125.992 -0.830676L122.497 32.4581C122.459 32.7624 122.202 32.9925 121.892 32.9925H106.881C106.579 32.9925 106.321 32.7624 106.284 32.4655L104.642 18.2742C104.604 17.9476 104.839 17.6507 105.171 17.6136C105.52 17.5691 105.807 17.8066 105.845 18.1332L107.434 31.7975H121.354L123.942 7.15566H114.182L111.398 28.8286C111.36 29.1329 111.103 29.3482 110.8 29.3482C110.793 29.3482 110.786 29.3475 110.778 29.3465C110.773 29.3459 110.768 29.3452 110.763 29.3445C110.755 29.3435 110.748 29.3425 110.741 29.3417C110.736 29.3411 110.73 29.3408 110.725 29.3408C110.399 29.3036 110.165 29.0068 110.203 28.6802L112.964 7.15566H108.947C108.614 7.15566 108.342 6.88846 108.342 6.56188C108.342 6.2353 108.614 5.9681 108.947 5.9681H113.115L113.925 -0.311118H106.276C105.943 -0.311118 105.671 -0.57832 105.671 -0.904899C105.671 -1.23148 105.943 -1.49868 106.276 -1.49868H114.076L114.863 -7.63688C114.886 -7.77048 114.946 -7.89665 115.052 -7.99314L121.43 -13.8419C121.672 -14.0645 122.058 -14.0497 122.285 -13.8122C122.512 -13.5747 122.497 -13.1961 122.255 -12.9735L116.036 -7.26576L115.294 -1.49125H125.402ZM115.143 -0.311118L114.334 5.9681H124.071L124.729 -0.311118H115.143Z" fill="#667085"/>
    <path fill-rule="evenodd" clip-rule="evenodd" d="M116.112 27.448C114.689 27.448 113.532 26.3124 113.532 24.917C113.532 23.5216 114.689 22.386 116.112 22.386C117.534 22.386 118.691 23.5216 118.691 24.917C118.691 26.3124 117.534 27.448 116.112 27.448ZM117.481 24.917C117.481 24.1748 116.868 23.5736 116.112 23.5736C115.355 23.5736 114.742 24.1748 114.742 24.917C114.742 25.6593 115.355 26.2605 116.112 26.2605C116.868 26.2605 117.481 25.6593 117.481 24.917Z" fill="#667085"/>
    <path fill-rule="evenodd" clip-rule="evenodd" d="M118.328 18.7048C119.751 18.7048 120.908 17.5692 120.908 16.1738C120.908 14.7784 119.751 13.6428 118.328 13.6428C116.906 13.6428 115.748 14.7784 115.748 16.1738C115.748 17.5692 116.898 18.7048 118.328 18.7048ZM118.328 14.8304C119.085 14.8304 119.698 15.4316 119.698 16.1738C119.698 16.916 119.085 17.5172 118.328 17.5172C117.572 17.5172 116.959 16.916 116.959 16.1738C116.959 15.4316 117.572 14.8304 118.328 14.8304Z" fill="#667085"/>
    <path fill-rule="evenodd" clip-rule="evenodd" d="M105.557 8.76636C105.618 11.7872 104.687 14.3479 102.856 16.1812C101.048 17.9922 98.3851 19.0165 95.3437 19.113V27.3294L102.524 31.9015C102.539 31.9114 102.547 31.9213 102.556 31.9312C102.56 31.9361 102.564 31.9411 102.569 31.946C102.599 31.9683 102.629 31.998 102.652 32.0277C102.675 32.0499 102.698 32.0871 102.713 32.1167C102.729 32.1435 102.738 32.1664 102.747 32.1909C102.75 32.2005 102.754 32.2103 102.758 32.2207C102.762 32.2392 102.766 32.2596 102.769 32.28C102.773 32.3004 102.777 32.3209 102.781 32.3394C102.782 32.3441 102.784 32.3484 102.785 32.3525C102.791 32.3682 102.796 32.3812 102.796 32.3988C102.796 32.4111 102.794 32.4211 102.792 32.4301C102.79 32.4374 102.788 32.4441 102.788 32.4508C102.788 32.4953 102.781 32.5324 102.766 32.5695C102.761 32.5819 102.756 32.5942 102.752 32.6066C102.744 32.6314 102.735 32.6561 102.72 32.6808C102.71 32.6907 102.707 32.7006 102.703 32.7105C102.702 32.7155 102.7 32.7204 102.698 32.7254C102.691 32.7319 102.684 32.7355 102.678 32.7388C102.671 32.7431 102.664 32.7467 102.66 32.7551C102.614 32.807 102.569 32.8516 102.508 32.8887C102.499 32.8946 102.492 32.9016 102.484 32.9084C102.473 32.9188 102.462 32.9287 102.448 32.9332C102.365 32.9777 102.281 33 102.183 33H87.2863C87.2661 33 87.2459 32.9934 87.2258 32.9868C87.2157 32.9835 87.2056 32.9802 87.1955 32.9777C87.1773 32.9718 87.1592 32.9682 87.141 32.9647C87.1138 32.9593 87.0865 32.954 87.0593 32.9406C86.9988 32.9184 86.9534 32.8812 86.9004 32.8367L86.8702 32.807C86.8587 32.7957 86.8461 32.7866 86.8337 32.7776C86.8134 32.7629 86.7935 32.7484 86.7794 32.7254C86.5978 32.4508 86.681 32.0796 86.961 31.9015L94.1105 27.3368V19.1056C91.1069 18.9868 88.4892 17.9699 86.7037 16.1812C84.8728 14.3479 83.9422 11.7872 84.0028 8.76636C84.0631 6.06528 84.9132 4.12416 85.8105 2.07495L85.8185 2.05665L85.8363 2.01643C86.4134 0.707751 87.011 -0.647442 87.4603 -2.3299C88.6405 -6.71644 86.5827 -10.3237 86.56 -10.3608C86.5524 -10.3682 86.5524 -10.383 86.5524 -10.3905C86.5373 -10.4276 86.5221 -10.4647 86.5146 -10.5018C86.5117 -10.5189 86.5077 -10.5349 86.5038 -10.5502C86.4976 -10.5748 86.4919 -10.5977 86.4919 -10.6205C86.4919 -10.628 86.49 -10.6335 86.4881 -10.6391C86.4862 -10.6447 86.4843 -10.6502 86.4843 -10.6577C86.4843 -10.6736 86.4887 -10.6873 86.4927 -10.7001C86.4962 -10.7112 86.4994 -10.7215 86.4994 -10.7319C86.4994 -10.769 86.507 -10.8061 86.5221 -10.8432C86.5373 -10.8803 86.5524 -10.9174 86.5751 -10.9471C86.5902 -10.9768 86.6129 -11.0139 86.6356 -11.0362C86.6659 -11.0733 86.6962 -11.0956 86.734 -11.1178C86.7388 -11.1225 86.7436 -11.128 86.7486 -11.1337C86.7595 -11.146 86.7714 -11.1596 86.7869 -11.1698C86.7945 -11.1772 86.8096 -11.1772 86.8172 -11.1698C86.8242 -11.1725 86.8309 -11.1753 86.8376 -11.178C86.8667 -11.1899 86.8937 -11.2009 86.9307 -11.2069C86.9481 -11.2098 86.9644 -11.2137 86.9801 -11.2175C87.0051 -11.2235 87.0284 -11.2292 87.0517 -11.2292C87.0593 -11.2292 87.065 -11.231 87.0707 -11.2329C87.0763 -11.2347 87.082 -11.2366 87.0896 -11.2366H102.478C102.486 -11.2366 102.491 -11.2347 102.497 -11.2329C102.503 -11.231 102.508 -11.2292 102.516 -11.2292C102.547 -11.2292 102.575 -11.222 102.602 -11.2152C102.614 -11.2122 102.625 -11.2092 102.637 -11.2069C102.675 -11.1995 102.713 -11.1846 102.751 -11.1698C102.758 -11.1698 102.773 -11.1698 102.781 -11.1624C102.794 -11.1582 102.802 -11.1492 102.81 -11.1395C102.817 -11.1321 102.824 -11.1243 102.834 -11.1178C102.872 -11.0956 102.902 -11.0659 102.932 -11.0362C102.951 -11.0222 102.964 -11.0022 102.975 -10.9857C102.981 -10.976 102.987 -10.9675 102.993 -10.962C103.015 -10.9323 103.03 -10.8952 103.046 -10.8581C103.055 -10.8338 103.059 -10.8063 103.062 -10.7799C103.064 -10.7659 103.066 -10.7521 103.068 -10.7393C103.068 -10.729 103.072 -10.7186 103.075 -10.7076C103.079 -10.6948 103.083 -10.681 103.083 -10.6651C103.083 -10.6577 103.082 -10.6521 103.08 -10.6465C103.078 -10.641 103.076 -10.6354 103.076 -10.628C103.076 -10.5971 103.069 -10.5698 103.062 -10.5436C103.059 -10.532 103.055 -10.5206 103.053 -10.5092C103.046 -10.4907 103.04 -10.4721 103.034 -10.4535C103.029 -10.435 103.023 -10.4164 103.015 -10.3979C103.012 -10.3905 103.01 -10.3849 103.008 -10.3793C103.006 -10.3738 103.004 -10.3682 103 -10.3608C103 -10.3608 102.997 -10.3536 102.991 -10.3435C102.843 -10.0667 100.962 -6.56083 102.1 -2.3299C102.561 -0.630199 103.159 0.735492 103.742 2.05665C104.65 4.11261 105.504 6.05724 105.557 8.76636ZM100.133 31.805L94.7309 28.3685L89.329 31.805H100.133ZM86.9312 2.54786C86.0414 4.57468 85.2737 6.3236 85.2208 8.79605C85.1679 11.4903 85.9774 13.7541 87.5662 15.3573C89.2307 17.0273 91.7652 17.9477 94.6855 17.9477H94.7158C94.732 17.9477 94.746 17.9519 94.7591 17.9559C94.7704 17.9593 94.7809 17.9625 94.7914 17.9625C94.8076 17.9625 94.8217 17.9583 94.8347 17.9543C94.846 17.9509 94.8566 17.9477 94.8671 17.9477C97.7874 17.9477 100.314 17.0273 101.986 15.3573C103.583 13.7615 104.392 11.4903 104.339 8.79605C104.309 7.12605 103.946 5.79004 103.439 4.46888H89.7224C89.3895 4.46888 89.1172 4.20168 89.1172 3.8751C89.1172 3.54852 89.3895 3.28132 89.7224 3.28132H102.962C102.931 3.20882 102.9 3.13567 102.868 3.06206C102.793 2.88699 102.717 2.70933 102.637 2.53168L102.618 2.4892C102.027 1.13672 101.414 -0.262705 100.942 -2.02558C99.9815 -5.58826 100.92 -8.61654 101.532 -10.0565H88.0428C88.6481 -8.62396 89.5938 -5.58826 88.633 -2.02558C88.166 -0.272983 87.561 1.10911 86.9745 2.4488L86.9383 2.53168L86.9312 2.54786Z" fill="#667085"/>
    <path d="M94.7309 28.3685L100.133 31.805H89.329L94.7309 28.3685Z" fill="#98A2B3"/>
    <path d="M119.698 16.1738C119.698 15.4316 119.085 14.8304 118.328 14.8304C117.572 14.8304 116.959 15.4316 116.959 16.1738C116.959 16.916 117.572 17.5172 118.328 17.5172C119.085 17.5172 119.698 16.916 119.698 16.1738Z" fill="#98A2B3"/>
    <path d="M116.112 23.5736C116.868 23.5736 117.481 24.1748 117.481 24.917C117.481 25.6593 116.868 26.2605 116.112 26.2605C115.355 26.2605 114.742 25.6593 114.742 24.917C114.742 24.1748 115.355 23.5736 116.112 23.5736Z" fill="#98A2B3"/>
</svg>
