<svg width="370" height="104" viewBox="0 0 370 104" fill="none" xmlns="http://www.w3.org/2000/svg">
    <circle cx="301.735" cy="117.731" r="11.0716" transform="rotate(-37.7268 301.735 117.731)" stroke="#667085" stroke-width="1.2" stroke-linecap="round" stroke-linejoin="round"/>
    <path d="M284.641 121.288C285.596 120.549 288.169 119.271 290.821 120.068M312.546 113.947L316.005 113.815L316.702 117.347L313.243 117.479M262.219 123.877L258.441 124.256L259.066 128.352L262.844 127.973M269.138 123.613L271.727 119.066M270.646 127.535L276.07 118.759M274.989 127.228L277.577 122.681M297.957 118.11L300.545 113.563M299.464 122.032L304.888 113.257M303.807 121.726L306.395 117.179" stroke="#667085" stroke-width="1.2" stroke-linecap="round" stroke-linejoin="round"/>
    <path d="M123.609 26.1257H128.439M179.15 26.1257H174.32M174.32 26.1257H128.439M174.32 26.1257V20.8936M174.32 8.41712V20.8936M128.439 26.1257V20.8936M128.439 8.41712V20.8936M128.439 20.8936H134.476M174.32 20.8936H167.881M167.881 20.8936V-2.85196M167.881 20.8936H162.649M162.649 -2.85196H173.515L150.977 -18.5482M162.649 -2.85196V20.8936M162.649 -2.85196H157.819M162.649 20.8936H157.819M157.819 -2.85196V20.8936M157.819 -2.85196H144.538M157.819 20.8936H144.538M144.538 -2.85196V20.8936M144.538 -2.85196H139.306M144.538 20.8936H139.306M139.306 -2.85196V20.8936M139.306 -2.85196H134.476M139.306 20.8936H134.476M134.476 -2.85196H128.841L150.977 -18.5482M134.476 -2.85196V20.8936M150.977 -18.5482V-22.1704M150.977 -22.1704V-27H160.234V-22.1704H150.977Z" stroke="#667085" stroke-width="1.2" stroke-linecap="round" stroke-linejoin="round"/>
    <circle cx="128.439" cy="8.8196" r="5.83948" fill="#98A2B3" stroke="#667085" stroke-width="1.2" stroke-linecap="round" stroke-linejoin="round"/>
    <circle cx="174.32" cy="8.01467" r="5.83948" fill="#98A2B3" stroke="#667085" stroke-width="1.2" stroke-linecap="round" stroke-linejoin="round"/>
    <path fill-rule="evenodd" clip-rule="evenodd" d="M283.162 26.5087C283.328 26.5087 283.495 26.5755 283.608 26.7017C283.722 26.8279 283.782 26.9912 283.752 27.1693L280.257 60.4581C280.219 60.7624 279.962 60.9925 279.651 60.9925H264.641C264.338 60.9925 264.081 60.7624 264.043 60.4655L262.402 46.2742C262.364 45.9476 262.598 45.6507 262.931 45.6136C263.279 45.5691 263.567 45.8066 263.605 46.1332L265.193 59.7975H279.114L281.702 35.1557H271.942L269.158 56.8286C269.12 57.1329 268.863 57.3482 268.56 57.3482C268.553 57.3482 268.545 57.3475 268.538 57.3465C268.533 57.3459 268.527 57.3452 268.522 57.3445C268.515 57.3435 268.508 57.3425 268.501 57.3417C268.495 57.3411 268.49 57.3408 268.484 57.3408C268.159 57.3036 267.925 57.0068 267.962 56.6802L270.724 35.1557H266.707C266.374 35.1557 266.101 34.8885 266.101 34.5619C266.101 34.2353 266.374 33.9681 266.707 33.9681H270.875L271.685 27.6889H264.036C263.703 27.6889 263.431 27.4217 263.431 27.0951C263.431 26.7685 263.703 26.5013 264.036 26.5013H271.836L272.623 20.3631C272.646 20.2295 272.706 20.1033 272.812 20.0069L279.19 14.1581C279.432 13.9355 279.818 13.9503 280.045 14.1878C280.272 14.4253 280.257 14.8039 280.015 15.0265L273.796 20.7342L273.054 26.5087H283.162ZM272.903 27.6889L272.093 33.9681H281.83L282.489 27.6889H272.903Z" fill="#667085"/>
    <path fill-rule="evenodd" clip-rule="evenodd" d="M273.871 55.448C272.449 55.448 271.291 54.3124 271.291 52.917C271.291 51.5216 272.449 50.386 273.871 50.386C275.294 50.386 276.451 51.5216 276.451 52.917C276.451 54.3124 275.294 55.448 273.871 55.448ZM275.241 52.917C275.241 52.1748 274.628 51.5736 273.871 51.5736C273.115 51.5736 272.502 52.1748 272.502 52.917C272.502 53.6593 273.115 54.2605 273.871 54.2605C274.628 54.2605 275.241 53.6593 275.241 52.917Z" fill="#667085"/>
    <path fill-rule="evenodd" clip-rule="evenodd" d="M276.088 46.7048C277.51 46.7048 278.668 45.5692 278.668 44.1738C278.668 42.7784 277.51 41.6428 276.088 41.6428C274.666 41.6428 273.508 42.7784 273.508 44.1738C273.508 45.5692 274.658 46.7048 276.088 46.7048ZM276.088 42.8304C276.845 42.8304 277.457 43.4316 277.457 44.1738C277.457 44.916 276.845 45.5172 276.088 45.5172C275.331 45.5172 274.719 44.916 274.719 44.1738C274.719 43.4316 275.331 42.8304 276.088 42.8304Z" fill="#667085"/>
    <path fill-rule="evenodd" clip-rule="evenodd" d="M263.317 36.7664C263.378 39.7872 262.447 42.3479 260.616 44.1812C258.808 45.9922 256.145 47.0165 253.103 47.113V55.3294L260.283 59.9015C260.298 59.9114 260.307 59.9213 260.315 59.9312C260.319 59.9361 260.324 59.9411 260.329 59.946C260.359 59.9683 260.389 59.998 260.412 60.0277C260.435 60.0499 260.457 60.0871 260.472 60.1167C260.489 60.1435 260.497 60.1664 260.506 60.1909C260.51 60.2005 260.514 60.2103 260.518 60.2207C260.522 60.2392 260.525 60.2596 260.529 60.28C260.533 60.3004 260.537 60.3209 260.541 60.3394C260.542 60.3441 260.544 60.3484 260.545 60.3525C260.551 60.3682 260.556 60.3812 260.556 60.3988C260.556 60.4111 260.553 60.4211 260.551 60.4301C260.55 60.4374 260.548 60.4441 260.548 60.4508C260.548 60.4953 260.541 60.5324 260.525 60.5695C260.52 60.5819 260.516 60.5942 260.512 60.6066C260.504 60.6314 260.495 60.6561 260.48 60.6808C260.47 60.6907 260.467 60.7006 260.463 60.7105C260.462 60.7155 260.46 60.7204 260.457 60.7254C260.451 60.7319 260.444 60.7355 260.438 60.7388C260.43 60.7431 260.424 60.7467 260.42 60.7551C260.374 60.807 260.329 60.8516 260.268 60.8887C260.259 60.8946 260.251 60.9016 260.244 60.9084C260.232 60.9188 260.221 60.9287 260.208 60.9332C260.124 60.9777 260.041 61 259.943 61H245.046C245.026 61 245.006 60.9934 244.986 60.9868C244.975 60.9835 244.965 60.9802 244.955 60.9777C244.937 60.9718 244.919 60.9682 244.901 60.9647C244.874 60.9593 244.846 60.954 244.819 60.9406C244.759 60.9184 244.713 60.8812 244.66 60.8367L244.63 60.807C244.618 60.7957 244.606 60.7866 244.593 60.7776C244.573 60.7629 244.553 60.7484 244.539 60.7254C244.358 60.4508 244.441 60.0796 244.721 59.9015L251.87 55.3368V47.1056C248.867 46.9868 246.249 45.9699 244.463 44.1812C242.633 42.3479 241.702 39.7872 241.763 36.7664C241.823 34.0653 242.673 32.1242 243.57 30.0749L243.578 30.0567L243.596 30.0164C244.173 28.7078 244.771 27.3526 245.22 25.6701C246.4 21.2836 244.342 17.6763 244.32 17.6392C244.312 17.6318 244.312 17.617 244.312 17.6095C244.297 17.5724 244.282 17.5353 244.274 17.4982C244.271 17.4811 244.267 17.4651 244.264 17.4498C244.257 17.4252 244.252 17.4023 244.252 17.3795C244.252 17.372 244.25 17.3665 244.248 17.3609C244.246 17.3553 244.244 17.3498 244.244 17.3423C244.244 17.3264 244.248 17.3127 244.252 17.2999C244.256 17.2888 244.259 17.2785 244.259 17.2681C244.259 17.231 244.267 17.1939 244.282 17.1568C244.297 17.1197 244.312 17.0826 244.335 17.0529C244.35 17.0232 244.373 16.9861 244.395 16.9638C244.426 16.9267 244.456 16.9044 244.494 16.8822C244.499 16.8775 244.503 16.872 244.508 16.8663C244.519 16.854 244.531 16.8404 244.547 16.8302C244.554 16.8228 244.569 16.8228 244.577 16.8302C244.584 16.8275 244.591 16.8247 244.597 16.822C244.627 16.8101 244.653 16.7991 244.69 16.7931C244.708 16.7902 244.724 16.7863 244.74 16.7825C244.765 16.7765 244.788 16.7708 244.812 16.7708C244.819 16.7708 244.825 16.769 244.83 16.7671C244.836 16.7653 244.842 16.7634 244.849 16.7634H260.238C260.245 16.7634 260.251 16.7653 260.257 16.7671C260.263 16.769 260.268 16.7708 260.276 16.7708C260.307 16.7708 260.335 16.778 260.362 16.7848C260.374 16.7878 260.385 16.7908 260.397 16.7931C260.435 16.8005 260.472 16.8154 260.51 16.8302C260.518 16.8302 260.533 16.8302 260.541 16.8376C260.553 16.8418 260.561 16.8508 260.57 16.8605C260.577 16.8679 260.584 16.8757 260.594 16.8822C260.631 16.9044 260.662 16.9341 260.692 16.9638C260.711 16.9778 260.724 16.9978 260.735 17.0143C260.741 17.024 260.747 17.0325 260.752 17.038C260.775 17.0677 260.79 17.1048 260.805 17.1419C260.815 17.1662 260.819 17.1937 260.822 17.2201C260.824 17.2341 260.825 17.2479 260.828 17.2607C260.828 17.271 260.831 17.2814 260.835 17.2924C260.839 17.3052 260.843 17.319 260.843 17.3349C260.843 17.3423 260.841 17.3479 260.839 17.3535C260.838 17.359 260.836 17.3646 260.836 17.372C260.836 17.4029 260.828 17.4302 260.821 17.4564C260.818 17.468 260.815 17.4794 260.813 17.4908C260.805 17.5093 260.8 17.5279 260.794 17.5465C260.788 17.565 260.783 17.5836 260.775 17.6021C260.771 17.6095 260.769 17.6151 260.768 17.6207C260.766 17.6262 260.764 17.6318 260.76 17.6392C260.76 17.6392 260.756 17.6464 260.751 17.6565C260.602 17.9333 258.721 21.4392 259.86 25.6701C260.321 27.3698 260.919 28.7355 261.501 30.0567C262.409 32.1126 263.264 34.0572 263.317 36.7664ZM257.893 59.805L252.491 56.3685L247.089 59.805H257.893ZM244.691 30.5479C243.801 32.5747 243.033 34.3236 242.981 36.7961C242.928 39.4903 243.737 41.7541 245.326 43.3573C246.99 45.0273 249.525 45.9477 252.445 45.9477H252.476C252.492 45.9477 252.506 45.9519 252.519 45.9559C252.53 45.9593 252.541 45.9625 252.551 45.9625C252.567 45.9625 252.581 45.9583 252.594 45.9543C252.606 45.9509 252.616 45.9477 252.627 45.9477C255.547 45.9477 258.074 45.0273 259.746 43.3573C261.343 41.7615 262.152 39.4903 262.099 36.7961C262.069 35.126 261.706 33.79 261.199 32.4689H247.482C247.149 32.4689 246.877 32.2017 246.877 31.8751C246.877 31.5485 247.149 31.2813 247.482 31.2813H260.722C260.691 31.2088 260.659 31.1357 260.628 31.0621C260.553 30.887 260.477 30.7093 260.397 30.5317L260.378 30.4892C259.786 29.1367 259.174 27.7373 258.702 25.9744C257.741 22.4117 258.679 19.3835 259.292 17.9435H245.803C246.408 19.376 247.354 22.4117 246.393 25.9744C245.926 27.727 245.321 29.1091 244.734 30.4488L244.698 30.5317L244.691 30.5479Z" fill="#667085"/>
    <path d="M252.491 56.3685L257.893 59.805H247.089L252.491 56.3685Z" fill="#98A2B3"/>
    <path d="M273.871 51.5736C274.628 51.5736 275.241 52.1748 275.241 52.917C275.241 53.6593 274.628 54.2605 273.871 54.2605C273.115 54.2605 272.502 53.6593 272.502 52.917C272.502 52.1748 273.115 51.5736 273.871 51.5736Z" fill="#98A2B3"/>
    <path d="M277.457 44.1738C277.457 43.4316 276.845 42.8304 276.088 42.8304C275.331 42.8304 274.719 43.4316 274.719 44.1738C274.719 44.916 275.331 45.5172 276.088 45.5172C276.845 45.5172 277.457 44.916 277.457 44.1738Z" fill="#98A2B3"/>
    <path d="M63.8652 48.4692C67.771 45.0569 72.742 43.1374 77.9971 43.1374C84.1043 43.1374 89.9275 45.7678 93.9753 50.3175C94.1174 50.4597 94.2594 50.5308 94.4014 50.5308C94.5434 50.5308 94.6855 50.4597 94.7565 50.3886C94.9695 50.1753 95.0405 49.8199 94.8275 49.6066C90.5666 44.7725 84.3884 42 77.9971 42C72.5289 42 67.2029 43.9905 63.155 47.6161C62.942 47.8294 62.871 48.1848 63.084 48.3981C63.2971 48.6114 63.6521 48.6825 63.8652 48.4692Z" fill="#667085"/>
    <path d="M94.7565 77.6872C90.6377 82.8768 84.5305 85.8626 77.9971 85.8626C71.8189 85.8626 65.9247 83.1611 61.8768 78.5403C61.6638 78.327 61.3087 78.2559 61.0957 78.4692C60.8826 78.6825 60.8116 79.0379 61.0247 79.2512C65.2855 84.1564 71.4638 87 77.9971 87C84.9566 87 91.3479 83.872 95.6797 78.3981C95.8928 78.1848 95.8218 77.7583 95.6087 77.6161C95.3247 77.4029 94.9696 77.4739 94.7565 77.6872Z" fill="#667085"/>
    <path fill-rule="evenodd" clip-rule="evenodd" d="M81.1928 82.1658H74.8725C73.1682 82.1658 71.7479 80.815 71.8189 79.1089V78.0425C66.5638 75.6255 63.1551 70.2937 63.1551 64.5354C63.1551 58.7772 66.5638 53.4454 71.8189 51.0284V49.962C71.8189 48.2558 73.1682 46.9051 74.8725 46.9051H81.1928C82.8971 46.9051 84.2464 48.2558 84.2464 49.962V51.0284C89.5015 53.4454 92.9102 58.7772 92.9102 64.5354C92.9102 70.3648 89.5015 75.6255 84.2464 78.0425V79.1089C84.2464 80.815 82.8971 82.1658 81.1928 82.1658ZM74.8725 81.0283H81.1928C82.258 81.0283 83.1102 80.1752 83.1102 79.1089V65.1042C83.0392 65.0331 82.8971 65.0331 82.8261 65.0331H72.9551V79.1089C72.9551 80.1752 73.8073 81.0283 74.8725 81.0283ZM84.2464 76.7629C88.8624 74.417 91.774 69.725 91.774 64.5354C91.774 59.3459 88.8624 54.5829 84.3174 52.2369V63.1847C85.8797 62.1184 88.3653 60.6255 89.8566 61.3364C90.6377 61.6918 90.9928 62.4738 91.0638 63.6113C91.0638 64.8198 90.7087 65.6729 89.9276 66.1705C89.4305 66.4549 88.7913 66.5971 88.1522 66.5971C86.8029 66.5971 85.2406 66.0994 84.2464 65.6729V76.7629ZM89.3595 62.4738C88.4363 62.0473 86.1638 63.2558 84.4595 64.5354C86.0218 65.1753 88.2942 65.8151 89.2884 65.3174C89.3041 65.3017 89.3241 65.2843 89.3472 65.2642C89.5332 65.1021 89.9197 64.7654 89.8566 63.7535C89.8566 63.0426 89.7145 62.616 89.3595 62.4738ZM81.1928 47.9715H74.8725C73.7363 47.9715 72.8841 48.8246 72.8841 49.8909V63.8956H78.8493C77.9971 63.398 77.358 62.8293 77.074 62.1184C76.8609 61.5497 76.7189 60.5544 77.6421 59.417C78.4232 58.4928 79.2044 58.4217 79.7015 58.4928C81.1218 58.7772 82.329 60.8388 83.1102 62.4738V49.8909C83.1102 48.8246 82.258 47.9715 81.1928 47.9715ZM78.1392 61.7629C78.4232 62.5449 79.7725 63.4691 82.4711 63.8956C81.7609 62.0473 80.5537 59.8435 79.4884 59.6302H79.3464C79.1334 59.6302 78.8493 59.7724 78.4942 60.199C78.0682 60.7677 77.9261 61.2653 78.1392 61.7629ZM71.8189 52.308C67.2029 54.6539 64.2913 59.3459 64.2913 64.5354C64.2913 69.6539 67.2029 74.4169 71.8189 76.834V52.308Z" fill="#667085"/>
    <path fill-rule="evenodd" clip-rule="evenodd" d="M102 81.5972V45.1991C102 44.9859 101.929 44.8437 101.787 44.7015C101.645 44.6304 101.432 44.5593 101.29 44.6304C101.077 44.7015 96.6029 46.4077 96.1058 56.5024C95.8217 62.6873 97.3841 67.6636 97.6681 68.5166L96.887 81.5972C96.887 81.6175 96.8863 81.6417 96.8856 81.6693C96.8786 81.9318 96.8633 82.5045 97.313 83.019C97.7391 83.5877 98.5203 83.801 99.5145 83.801C100.367 83.801 101.077 83.5877 101.503 83.0901C102 82.5214 102 81.8105 102 81.5972ZM100.58 82.3792C100.367 82.5924 99.9406 82.7346 99.4435 82.7346C98.8043 82.7346 98.3783 82.5924 98.1652 82.3081C97.9522 82.0948 98.0232 81.7394 98.0232 81.7394V81.6683L98.8043 68.4455V68.2323C98.8043 68.2259 98.7895 68.1784 98.7627 68.0926C98.4901 67.22 96.9835 62.3972 97.242 56.5735C97.5971 49.8911 99.7275 47.1896 100.864 46.1944V81.6683C100.864 81.6683 100.864 82.0948 100.58 82.3792Z" fill="#667085"/>
    <path d="M56.5507 56.6445C56.5507 56.9289 56.2666 57.2133 55.9825 57.2133C55.6275 57.2133 55.4144 56.9289 55.4144 56.6445V45.7678C55.4144 45.4123 55.6985 45.199 55.9825 45.199C56.2666 45.199 56.5507 45.4834 56.5507 45.7678V56.6445Z" fill="#667085"/>
    <path d="M61.3797 57.4265V45.7678C61.3797 45.4834 61.0957 45.199 60.8116 45.199C60.5275 45.199 60.2435 45.4834 60.2435 45.7678V57.4976C60.2435 57.4976 60.2435 59.8436 58.2551 60.4834C58.042 60.5545 57.829 60.7677 57.829 61.0521L58.6101 80.8862C58.6101 80.8862 58.6101 81.8104 58.113 82.308C57.9 82.5213 57.5449 82.6635 57.1899 82.6635C56.7638 82.6635 56.4797 82.5213 56.2667 82.308C55.7696 81.8104 55.7696 80.8862 55.7696 80.8862L56.5507 60.981C56.5507 60.6967 56.4087 60.4834 56.1246 60.4123C54.1362 59.7725 54.1362 57.4976 54.1362 57.4265V45.7678C54.1362 45.4834 53.8522 45.199 53.5681 45.199C53.2841 45.199 53 45.4123 53 45.7678V57.4976C53 58.564 53.4971 60.6256 55.4145 61.4076L54.6333 80.8151C54.6333 80.8862 54.6333 82.2369 55.4145 83.09C55.8406 83.5165 56.4797 83.8009 57.1899 83.8009C57.9 83.8009 58.4681 83.5876 58.9652 83.09C59.7813 82.273 59.7507 80.9997 59.7467 80.8309L59.7464 80.8151L58.9652 61.4076C60.8826 60.5545 61.3797 58.4929 61.3797 57.4265Z" fill="#667085"/>
    <path d="M58.9653 56.6445C58.9653 56.9289 58.6812 57.2133 58.3971 57.2133C58.0421 57.2133 57.829 56.9289 57.829 56.6445V45.7678C57.829 45.4834 58.1131 45.199 58.3971 45.199C58.6812 45.199 58.9653 45.4834 58.9653 45.7678V56.6445Z" fill="#667085"/>
    <path d="M74.8725 47.9715H81.1928C82.258 47.9715 83.1102 48.8246 83.1102 49.8909V62.4738C82.329 60.8388 81.1218 58.7772 79.7015 58.4928C79.2044 58.4217 78.4232 58.4928 77.6421 59.417C76.7189 60.5544 76.8609 61.5497 77.074 62.1184C77.358 62.8293 77.9971 63.398 78.8493 63.8956H72.8841V49.8909C72.8841 48.8246 73.7363 47.9715 74.8725 47.9715Z" fill="#98A2B3"/>
    <path d="M81.1928 81.0283H74.8725C73.8073 81.0283 72.9551 80.1752 72.9551 79.1089V65.0331H82.8261C82.8971 65.0331 83.0392 65.0331 83.1102 65.1042V79.1089C83.1102 80.1752 82.258 81.0283 81.1928 81.0283Z" fill="#98A2B3"/>
    <path d="M364.538 115.451V93.8412L349.244 90.9624L336.767 88.6139V115.451H353.268V101.365H359.305V115.451H364.538Z" fill="#98A2B3"/>
    <path d="M312.217 115.451H315.839M368.965 115.451H364.538M364.538 115.451V93.8412L349.244 90.9624M364.538 115.451H359.305M336.767 115.451V88.6139L349.244 90.9624M336.767 115.451H315.839M336.767 115.451H353.268M333.95 88.0836L349.244 90.9624M368.16 94.523L349.244 90.9624M349.244 90.9624V71.1799M349.244 71.1799L312.619 82.449M349.244 71.1799L352.061 70.375M315.839 115.451V81.4583M322.681 94.523V87.2786H329.12V94.523M322.681 94.523H329.12M322.681 94.523V101.969M329.12 94.523V101.969M322.681 101.969V109.414H329.12V101.969M322.681 101.969H329.12M341.194 99.7551H345.219M343.609 96.5354H347.634M353.268 115.451V101.365H359.305V115.451M353.268 115.451H359.305" stroke="#667085" stroke-width="1.2" stroke-linecap="round"/>
    <path d="M170.75 68.8334H199.25V66.9334C199.25 64.2732 199.25 62.943 198.732 61.927C198.277 61.0332 197.55 60.3065 196.656 59.8511C195.64 59.3334 194.31 59.3334 191.65 59.3334H191.333H178.667H178.35C175.69 59.3334 174.36 59.3334 173.344 59.8511C172.45 60.3065 171.723 61.0332 171.268 61.927C170.75 62.943 170.75 64.2732 170.75 66.9334V68.8334Z" fill="#98A2B3"/>
    <path d="M199.25 66.9334V80.2334C199.25 82.8937 199.25 84.2238 198.732 85.2399C198.277 86.1336 197.55 86.8603 196.656 87.3157C195.64 87.8334 194.31 87.8334 191.65 87.8334H178.35C175.69 87.8334 174.36 87.8334 173.344 87.3157C172.45 86.8603 171.723 86.1336 171.268 85.2399C170.75 84.2238 170.75 82.8937 170.75 80.2334V66.9334M199.25 66.9334C199.25 64.2732 199.25 62.943 198.732 61.927C198.277 61.0332 197.55 60.3065 196.656 59.8511C195.64 59.3334 194.31 59.3334 191.65 59.3334H191.333M199.25 66.9334V68.8334H170.75V66.9334M170.75 66.9334C170.75 64.2732 170.75 62.943 171.268 61.927C171.723 61.0332 172.45 60.3065 173.344 59.8511C174.36 59.3334 175.69 59.3334 178.35 59.3334H178.667M191.333 56.1667V59.3334M191.333 62.5001V59.3334M178.667 56.1667V59.3334M178.667 62.5001V59.3334M182.625 75.1668L185 73.5834V81.5001M183.021 81.5001H186.979M191.333 59.3334H178.667" stroke="#667085" stroke-width="1.2" stroke-linecap="round" stroke-linejoin="round"/>
    <path d="M335.708 19.625L331.083 24.25M361.917 24.25L357.292 19.625M337.25 44.2917L334.167 47.375M355.75 44.2917L358.833 47.375M346.5 28.875V35.0417L349.583 38.125M346.5 47.375C349.771 47.375 352.908 46.0756 355.221 43.7627C357.534 41.4497 358.833 38.3127 358.833 35.0417C358.833 31.7707 357.534 28.6336 355.221 26.3207C352.908 24.0077 349.771 22.7083 346.5 22.7083C343.229 22.7083 340.092 24.0077 337.779 26.3207C335.466 28.6336 334.167 31.7707 334.167 35.0417C334.167 38.3127 335.466 41.4497 337.779 43.7627C340.092 46.0756 343.229 47.375 346.5 47.375Z" stroke="#667085" stroke-width="1.2" stroke-linecap="round" stroke-linejoin="round"/>
    <path d="M7.7085 5.625L3.0835 10.25M33.9168 10.25L29.2918 5.625M9.25016 30.2917L6.16683 33.375M27.7502 30.2917L30.8335 33.375M18.5002 14.875V21.0417L21.5835 24.125M18.5002 33.375C21.7712 33.375 24.9082 32.0756 27.2211 29.7627C29.5341 27.4497 30.8335 24.3127 30.8335 21.0417C30.8335 17.7707 29.5341 14.6336 27.2211 12.3207C24.9082 10.0077 21.7712 8.70833 18.5002 8.70833C15.2292 8.70833 12.0921 10.0077 9.77918 12.3207C7.46623 14.6336 6.16683 17.7707 6.16683 21.0417C6.16683 24.3127 7.46623 27.4497 9.77918 29.7627C12.0921 32.0756 15.2292 33.375 18.5002 33.375Z" stroke="#667085" stroke-width="1.2" stroke-linecap="round" stroke-linejoin="round"/>
</svg>
