<svg width="428" height="104" viewBox="0 0 428 104" fill="none" xmlns="http://www.w3.org/2000/svg">
    <path d="M345.641 127.288C346.596 126.549 349.169 125.271 351.821 126.068M373.546 119.947L377.005 119.815L377.702 123.347L374.243 123.479M323.219 129.877L319.441 130.256L320.066 134.352L323.844 133.973M330.138 129.613L332.727 125.066M331.646 133.535L337.07 124.759M335.989 133.228L338.577 128.681M358.957 124.11L361.545 119.563M360.464 128.032L365.888 119.257M364.807 127.726L367.395 123.179" stroke="#667085" stroke-width="1.2" stroke-linecap="round" stroke-linejoin="round"/>
    <path d="M317.584 21.4218H308.327V26.2514H317.584V21.4218Z" fill="#98A2B3"/>
    <path d="M280.959 74.5474H285.789M336.499 74.5474H331.67M331.67 74.5474H285.789M331.67 74.5474V69.3154M331.67 56.8389V69.3154M285.789 74.5474V69.3154M285.789 56.8389V69.3154M285.789 69.3154H291.826M331.67 69.3154H325.23M325.23 69.3154V45.5698M325.23 69.3154H319.998M319.998 45.5698H330.865L308.327 29.8736M319.998 45.5698V69.3154M319.998 45.5698H315.169M319.998 69.3154H315.169M315.169 45.5698V69.3154M315.169 45.5698H301.887M315.169 69.3154H301.887M301.887 45.5698V69.3154M301.887 45.5698H296.655M301.887 69.3154H296.655M296.655 45.5698V69.3154M296.655 45.5698H291.826M296.655 69.3154H291.826M291.826 45.5698H286.191L308.327 29.8736M291.826 45.5698V69.3154M308.327 29.8736V26.2514M308.327 26.2514V21.4218H317.584V26.2514H308.327Z" stroke="#667085" stroke-width="1.2" stroke-linecap="round" stroke-linejoin="round"/>
    <circle cx="308.327" cy="38.7278" r="2.61974" stroke="#667085" stroke-width="1.2" stroke-linecap="round" stroke-linejoin="round"/>
    <circle cx="285.789" cy="57.2415" r="5.83948" fill="#98A2B3" stroke="#667085" stroke-width="1.2" stroke-linecap="round" stroke-linejoin="round"/>
    <circle cx="331.67" cy="56.4365" r="5.83948" fill="#98A2B3" stroke="#667085" stroke-width="1.2" stroke-linecap="round" stroke-linejoin="round"/>
    <path d="M162.538 81.4513V59.8412L147.244 56.9624L134.767 54.6139V81.4513H151.268V67.365H157.305V81.4513H162.538Z" fill="#98A2B3"/>
    <path d="M110.217 81.4513H113.839M166.965 81.4513H162.538M162.538 81.4513V59.8412L147.244 56.9624M162.538 81.4513H157.305M134.767 81.4513V54.6139L147.244 56.9624M134.767 81.4513H113.839M134.767 81.4513H151.268M131.95 54.0836L147.244 56.9624M166.16 60.523L147.244 56.9624M147.244 56.9624V37.1799M147.244 37.1799L110.619 48.449M147.244 37.1799L150.061 36.375M113.839 81.4513V47.4583M120.681 60.523V53.2786H127.12V60.523M120.681 60.523H127.12M120.681 60.523V67.9687M127.12 60.523V67.9687M120.681 67.9687V75.4143H127.12V67.9687M120.681 67.9687H127.12M139.194 65.7551H143.219M141.609 62.5354H145.634M151.268 81.4513V67.365H157.305V81.4513M151.268 81.4513H157.305" stroke="#667085" stroke-width="1.2" stroke-linecap="round"/>
    <path fill-rule="evenodd" clip-rule="evenodd" d="M419.203 67.8052C420.016 67.2696 420.908 66.9856 421.825 66.9856C425.228 66.9856 427.992 70.8972 428 75.7178C428 80.2299 425.568 83.9549 422.464 84.4012V89.871C422.464 90.2281 422.18 90.5203 421.832 90.5203C421.485 90.5203 421.201 90.2281 421.201 89.871V84.3931C419.124 84.0929 417.299 82.3318 416.352 79.743C415.112 81.1388 413.596 82.0234 411.929 82.2101V89.8629C411.929 90.22 411.645 90.5122 411.298 90.5122C410.95 90.5122 410.666 90.22 410.666 89.8629V82.2101C406.465 81.7475 403.14 76.7403 403.14 70.6294C403.14 64.2182 406.796 59 411.298 59C415.112 59 418.31 62.7574 419.203 67.8052ZM411.929 67.294V80.9116C413.525 80.6925 414.962 79.6537 416.06 78.0793C416.064 78.0753 416.068 78.0692 416.071 78.0631C416.075 78.057 416.079 78.0509 416.083 78.0469C417.378 76.1722 418.192 73.5428 418.192 70.6294C418.192 64.9324 415.096 60.2985 411.298 60.2985C407.499 60.2985 404.404 64.9324 404.404 70.6294C404.404 76.0018 407.16 80.4328 410.666 80.9116V73.413C410.662 73.4089 410.658 73.4069 410.654 73.4049C410.65 73.4028 410.646 73.4008 410.642 73.3967L407.665 69.9396C407.436 69.6718 407.46 69.2579 407.72 69.0225C407.981 68.7872 408.384 68.8115 408.613 69.0793L410.666 71.4653V67.294C410.666 66.9369 410.95 66.6447 411.298 66.6447C411.645 66.6447 411.929 66.9369 411.929 67.294ZM417.284 78.5013C418.034 81.2849 419.834 83.1434 421.825 83.1434C424.533 83.1434 426.729 79.8079 426.736 75.7096C426.736 71.6195 424.541 68.284 421.832 68.284C420.972 68.284 420.142 68.633 419.4 69.2822C419.432 69.7286 419.455 70.1749 419.455 70.6294C419.455 73.6646 418.626 76.4238 417.284 78.5013Z" fill="#667085"/>
    <path d="M403.164 97.2074L403.155 97.2028C400.663 95.9142 398.307 94.6962 398.402 91.6727C398.441 90.4229 399.523 88.6375 401.166 87.1361C401.427 86.9008 401.45 86.4869 401.213 86.2191C400.984 85.9513 400.582 85.927 400.321 86.1623C398.821 87.5338 397.194 89.6925 397.131 91.6321C397.012 95.4869 399.973 97.0207 402.587 98.3679C405.028 99.6258 407.136 100.721 407.136 103.343C407.136 107.692 397.304 110.127 393.514 110.703C393.166 110.752 392.929 111.085 392.977 111.442C393.024 111.766 393.293 111.994 393.601 111.994C393.632 111.994 393.664 111.994 393.695 111.986C394.296 111.896 408.4 109.697 408.4 103.343C408.408 99.9179 405.62 98.4734 403.164 97.2074Z" fill="#667085"/>
    <path d="M410.895 94.3995L410.855 94.3874C407.996 93.5154 405.292 92.6912 404.522 91.8269C403.772 90.9991 403.74 90.0171 404.419 88.8323C404.593 88.5239 404.498 88.1263 404.19 87.9477C403.89 87.7692 403.503 87.8747 403.33 88.1831C402.374 89.8548 402.469 91.4698 403.598 92.7196C404.617 93.8476 407.231 94.6429 410.54 95.6492C415.997 97.3129 422.78 99.3823 422.78 103.343C422.78 108.865 414.414 111.542 413.868 111.717L413.848 111.724L413.841 111.726C413.509 111.823 413.312 112.188 413.406 112.529C413.485 112.813 413.738 113 414.014 113C414.07 113 414.133 112.992 414.188 112.976L414.19 112.975C414.615 112.847 424.044 109.997 424.044 103.351C424.036 98.4268 416.801 96.2095 410.96 94.4195L410.895 94.3995Z" fill="#667085"/>
    <path fill-rule="evenodd" clip-rule="evenodd" d="M394.951 104.389C394.951 104.032 394.667 103.74 394.319 103.74H391.863V92.6383L393.056 93.5959C393.174 93.6933 393.308 93.7339 393.443 93.7339C393.632 93.7339 393.814 93.6446 393.94 93.4823C394.153 93.1983 394.106 92.7925 393.83 92.5734L384.851 85.3588C384.708 85.2452 384.535 85.2046 384.369 85.2289C384.203 85.2046 384.029 85.2452 383.895 85.3588L374.908 92.5734C374.632 92.7925 374.584 93.1983 374.798 93.4823C374.924 93.6446 375.106 93.7339 375.295 93.7339C375.429 93.7339 375.572 93.6852 375.682 93.5959L376.875 92.6383V103.74H374.632C374.284 103.74 374 104.032 374 104.389C374 104.747 374.284 105.039 374.632 105.039H394.319C394.667 105.039 394.951 104.747 394.951 104.389ZM378.138 91.6239L384.369 86.6167L390.6 91.6239C390.6 91.6279 390.598 91.634 390.596 91.6401C390.595 91.6433 390.594 91.6464 390.593 91.6493C390.592 91.652 390.592 91.6563 390.592 91.6563V103.732H378.138V91.6645C378.143 91.654 378.142 91.6469 378.14 91.6388C378.139 91.6344 378.138 91.6296 378.138 91.6239Z" fill="#667085"/>
    <path fill-rule="evenodd" clip-rule="evenodd" d="M382.342 74.8096C382.308 74.8115 382.215 74.817 382.079 74.817C381.486 74.817 380.049 74.7034 379.007 73.7295C378.241 73.0154 377.846 72.001 377.846 70.7268C377.838 68.0406 380.223 67.0749 381.85 66.872C382.189 65.0542 383.571 62.368 387.054 62.4735C390.489 62.579 392.092 65.4762 392.574 67.3833C394.208 67.4239 396.641 68.1137 396.862 70.597C396.965 71.79 396.688 72.7719 396.025 73.5104C394.872 74.8008 392.929 74.8089 392.842 74.8089H382.355C382.355 74.8089 382.349 74.8092 382.342 74.8096ZM383.034 67.5375C383.003 67.8621 382.742 68.1218 382.418 68.1299C382.415 68.1301 382.411 68.1303 382.405 68.1306C382.143 68.1439 379.101 68.2986 379.101 70.7106C379.109 71.6033 379.362 72.2931 379.852 72.7557C380.732 73.5898 382.177 73.5083 382.278 73.5026C382.282 73.5024 382.284 73.5023 382.284 73.5023H392.842C392.874 73.5023 394.311 73.4942 395.093 72.6177C395.504 72.1552 395.669 71.5303 395.598 70.7106C395.406 68.5404 392.287 68.6738 392.108 68.6815C392.103 68.6816 392.1 68.6818 392.1 68.6818C391.768 68.7142 391.492 68.4708 391.437 68.138C391.413 67.9595 390.702 63.8774 387.014 63.7638H386.856C383.418 63.7638 383.054 67.3409 383.034 67.5344L383.034 67.5375Z" fill="#667085"/>
    <path d="M384.369 86.6167L378.138 91.6239C378.138 91.6296 378.139 91.6344 378.14 91.6388C378.142 91.6469 378.143 91.654 378.138 91.6645V103.732H390.592V91.6563C390.592 91.6563 390.592 91.652 390.593 91.6493C390.594 91.6464 390.595 91.6433 390.596 91.6401C390.598 91.634 390.6 91.6279 390.6 91.6239L384.369 86.6167Z" fill="#98A2B3"/>
    <path d="M421.825 83.1434C419.834 83.1434 418.034 81.2849 417.284 78.5013C418.626 76.4238 419.455 73.6646 419.455 70.6294C419.455 70.1749 419.432 69.7286 419.4 69.2822C420.142 68.633 420.972 68.284 421.832 68.284C424.541 68.284 426.736 71.6195 426.736 75.7096C426.729 79.8079 424.533 83.1434 421.825 83.1434Z" fill="#98A2B3"/>
    <path fill-rule="evenodd" clip-rule="evenodd" d="M234.402 4.50875C234.569 4.50875 234.735 4.57555 234.848 4.70172C234.962 4.8279 235.023 4.99119 234.992 5.16932L231.497 38.4581C231.459 38.7624 231.202 38.9925 230.892 38.9925H215.881C215.579 38.9925 215.321 38.7624 215.284 38.4655L213.642 24.2742C213.604 23.9476 213.839 23.6507 214.171 23.6136C214.52 23.5691 214.807 23.8066 214.845 24.1332L216.434 37.7975H230.354L232.942 13.1557H223.182L220.398 34.8286C220.36 35.1329 220.103 35.3482 219.8 35.3482C219.793 35.3482 219.786 35.3475 219.778 35.3465C219.773 35.3459 219.768 35.3452 219.763 35.3445C219.755 35.3435 219.748 35.3425 219.741 35.3417C219.736 35.3411 219.73 35.3408 219.725 35.3408C219.399 35.3036 219.165 35.0068 219.203 34.6802L221.964 13.1557H217.947C217.614 13.1557 217.342 12.8885 217.342 12.5619C217.342 12.2353 217.614 11.9681 217.947 11.9681H222.115L222.925 5.68888H215.276C214.943 5.68888 214.671 5.42168 214.671 5.0951C214.671 4.76852 214.943 4.50132 215.276 4.50132H223.076L223.863 -1.63688C223.886 -1.77048 223.946 -1.89665 224.052 -1.99314L230.43 -7.84187C230.672 -8.06454 231.058 -8.0497 231.285 -7.81218C231.512 -7.57467 231.497 -7.19614 231.255 -6.97347L225.036 -1.26576L224.294 4.50875H234.402ZM224.143 5.68888L223.334 11.9681H233.071L233.729 5.68888H224.143Z" fill="#667085"/>
    <path fill-rule="evenodd" clip-rule="evenodd" d="M225.112 33.448C223.689 33.448 222.532 32.3124 222.532 30.917C222.532 29.5216 223.689 28.386 225.112 28.386C226.534 28.386 227.691 29.5216 227.691 30.917C227.691 32.3124 226.534 33.448 225.112 33.448ZM226.481 30.917C226.481 30.1748 225.868 29.5736 225.112 29.5736C224.355 29.5736 223.742 30.1748 223.742 30.917C223.742 31.6593 224.355 32.2605 225.112 32.2605C225.868 32.2605 226.481 31.6593 226.481 30.917Z" fill="#667085"/>
    <path fill-rule="evenodd" clip-rule="evenodd" d="M227.328 24.7048C228.751 24.7048 229.908 23.5692 229.908 22.1738C229.908 20.7784 228.751 19.6428 227.328 19.6428C225.906 19.6428 224.748 20.7784 224.748 22.1738C224.748 23.5692 225.898 24.7048 227.328 24.7048ZM227.328 20.8304C228.085 20.8304 228.698 21.4316 228.698 22.1738C228.698 22.916 228.085 23.5172 227.328 23.5172C226.572 23.5172 225.959 22.916 225.959 22.1738C225.959 21.4316 226.572 20.8304 227.328 20.8304Z" fill="#667085"/>
    <path fill-rule="evenodd" clip-rule="evenodd" d="M214.557 14.7664C214.618 17.7872 213.687 20.3479 211.856 22.1812C210.048 23.9922 207.385 25.0165 204.344 25.113V33.3294L211.524 37.9015C211.539 37.9114 211.547 37.9213 211.556 37.9312C211.56 37.9361 211.564 37.9411 211.569 37.946C211.599 37.9683 211.629 37.998 211.652 38.0277C211.675 38.0499 211.698 38.0871 211.713 38.1167C211.729 38.1435 211.738 38.1664 211.747 38.1909C211.75 38.2005 211.754 38.2103 211.758 38.2207C211.762 38.2392 211.766 38.2596 211.769 38.28C211.773 38.3004 211.777 38.3209 211.781 38.3394C211.782 38.3441 211.784 38.3484 211.785 38.3525C211.791 38.3682 211.796 38.3812 211.796 38.3988C211.796 38.4111 211.794 38.4211 211.792 38.4301C211.79 38.4374 211.788 38.4441 211.788 38.4508C211.788 38.4953 211.781 38.5324 211.766 38.5695C211.761 38.5819 211.756 38.5942 211.752 38.6066C211.744 38.6314 211.735 38.6561 211.72 38.6808C211.71 38.6907 211.707 38.7006 211.703 38.7105C211.702 38.7155 211.7 38.7204 211.698 38.7254C211.691 38.7319 211.684 38.7355 211.678 38.7388C211.671 38.7431 211.664 38.7467 211.66 38.7551C211.614 38.807 211.569 38.8516 211.508 38.8887C211.499 38.8946 211.492 38.9016 211.484 38.9084C211.473 38.9188 211.462 38.9287 211.448 38.9332C211.365 38.9777 211.281 39 211.183 39H196.286C196.266 39 196.246 38.9934 196.226 38.9868C196.216 38.9835 196.206 38.9802 196.195 38.9777C196.177 38.9718 196.159 38.9682 196.141 38.9647C196.114 38.9593 196.087 38.954 196.059 38.9406C195.999 38.9184 195.953 38.8812 195.9 38.8367L195.87 38.807C195.859 38.7957 195.846 38.7866 195.834 38.7776C195.813 38.7629 195.793 38.7484 195.779 38.7254C195.598 38.4508 195.681 38.0796 195.961 37.9015L203.111 33.3368V25.1056C200.107 24.9868 197.489 23.9699 195.704 22.1812C193.873 20.3479 192.942 17.7872 193.003 14.7664C193.063 12.0653 193.913 10.1242 194.811 8.07495L194.819 8.05665L194.836 8.01643C195.413 6.70775 196.011 5.35256 196.46 3.6701C197.641 -0.716443 195.583 -4.32365 195.56 -4.36077C195.552 -4.36819 195.552 -4.38303 195.552 -4.39045C195.537 -4.42757 195.522 -4.46468 195.515 -4.50179C195.512 -4.51889 195.508 -4.53489 195.504 -4.55022C195.498 -4.57482 195.492 -4.59768 195.492 -4.62054C195.492 -4.62797 195.49 -4.63353 195.488 -4.6391C195.486 -4.64467 195.484 -4.65023 195.484 -4.65766C195.484 -4.67357 195.489 -4.68734 195.493 -4.70013C195.496 -4.71121 195.499 -4.72154 195.499 -4.73188C195.499 -4.76899 195.507 -4.8061 195.522 -4.84321C195.537 -4.88032 195.552 -4.91743 195.575 -4.94712C195.59 -4.97681 195.613 -5.01392 195.636 -5.03619C195.666 -5.0733 195.696 -5.09557 195.734 -5.11783C195.739 -5.12253 195.744 -5.12798 195.749 -5.1337C195.759 -5.14604 195.771 -5.15965 195.787 -5.16979C195.795 -5.17721 195.81 -5.17721 195.817 -5.16979C195.824 -5.17254 195.831 -5.17528 195.838 -5.17798C195.867 -5.18987 195.894 -5.20085 195.931 -5.2069C195.948 -5.20975 195.964 -5.21369 195.98 -5.21747C196.005 -5.22353 196.028 -5.22917 196.052 -5.22917C196.059 -5.22917 196.065 -5.23102 196.071 -5.23288C196.076 -5.23473 196.082 -5.23659 196.09 -5.23659H211.478C211.486 -5.23659 211.491 -5.23473 211.497 -5.23288C211.503 -5.23102 211.508 -5.22917 211.516 -5.22917C211.547 -5.22917 211.575 -5.22203 211.602 -5.21518C211.614 -5.21215 211.625 -5.20918 211.637 -5.2069C211.675 -5.19948 211.713 -5.18463 211.751 -5.16979C211.758 -5.16979 211.773 -5.16979 211.781 -5.16237C211.794 -5.15817 211.802 -5.14921 211.81 -5.13953C211.817 -5.13211 211.824 -5.12428 211.834 -5.11783C211.872 -5.09557 211.902 -5.06588 211.932 -5.03619C211.951 -5.02216 211.964 -5.00224 211.975 -4.9857C211.981 -4.976 211.987 -4.96746 211.993 -4.96197C212.015 -4.93228 212.03 -4.89518 212.046 -4.85807C212.055 -4.8338 212.059 -4.80633 212.062 -4.77986C212.064 -4.76586 212.066 -4.75214 212.068 -4.7393C212.068 -4.72897 212.072 -4.71863 212.075 -4.70756C212.079 -4.69477 212.083 -4.68099 212.083 -4.66508C212.083 -4.65766 212.082 -4.65209 212.08 -4.64652C212.078 -4.64095 212.076 -4.63539 212.076 -4.62797C212.076 -4.59709 212.069 -4.56978 212.062 -4.54356C212.059 -4.53197 212.055 -4.52059 212.053 -4.50921C212.046 -4.49065 212.04 -4.4721 212.034 -4.45354C212.029 -4.43499 212.023 -4.41643 212.015 -4.39788C212.012 -4.39045 212.01 -4.38489 212.008 -4.37932C212.006 -4.37375 212.004 -4.36819 212 -4.36077C212 -4.36077 211.997 -4.35364 211.991 -4.34346C211.843 -4.06675 209.962 -0.560832 211.1 3.6701C211.561 5.3698 212.159 6.73549 212.742 8.05665C213.65 10.1126 214.504 12.0572 214.557 14.7664ZM209.133 37.805L203.731 34.3685L198.329 37.805H209.133ZM195.931 8.54786C195.041 10.5747 194.274 12.3236 194.221 14.7961C194.168 17.4903 194.977 19.7541 196.566 21.3573C198.231 23.0273 200.765 23.9477 203.686 23.9477H203.716C203.732 23.9477 203.746 23.9519 203.759 23.9559C203.77 23.9593 203.781 23.9625 203.791 23.9625C203.808 23.9625 203.822 23.9583 203.835 23.9543C203.846 23.9509 203.857 23.9477 203.867 23.9477C206.787 23.9477 209.314 23.0273 210.986 21.3573C212.583 19.7615 213.392 17.4903 213.339 14.7961C213.309 13.126 212.946 11.79 212.439 10.4689H198.722C198.39 10.4689 198.117 10.2017 198.117 9.8751C198.117 9.54852 198.39 9.28132 198.722 9.28132H211.962C211.931 9.20882 211.9 9.13567 211.868 9.06206C211.793 8.88699 211.717 8.70933 211.637 8.53168L211.618 8.4892C211.027 7.13672 210.414 5.7373 209.942 3.97442C208.981 0.411738 209.92 -2.61654 210.532 -4.05645H197.043C197.648 -2.62396 198.594 0.411738 197.633 3.97442C197.166 5.72702 196.561 7.10911 195.975 8.4488L195.938 8.53168L195.931 8.54786Z" fill="#667085"/>
    <path d="M203.731 34.3685L209.133 37.805H198.329L203.731 34.3685Z" fill="#98A2B3"/>
    <path d="M225.112 29.5736C225.868 29.5736 226.481 30.1748 226.481 30.917C226.481 31.6593 225.868 32.2605 225.112 32.2605C224.355 32.2605 223.742 31.6593 223.742 30.917C223.742 30.1748 224.355 29.5736 225.112 29.5736Z" fill="#98A2B3"/>
    <path d="M228.698 22.1738C228.698 21.4316 228.085 20.8304 227.328 20.8304C226.572 20.8304 225.959 21.4316 225.959 22.1738C225.959 22.916 226.572 23.5172 227.328 23.5172C228.085 23.5172 228.698 22.916 228.698 22.1738Z" fill="#98A2B3"/>
    <path d="M10.8652 13.4692C14.771 10.0569 19.742 8.13744 24.9971 8.13744C31.1043 8.13744 36.9275 10.7678 40.9753 15.3175C41.1174 15.4597 41.2594 15.5308 41.4014 15.5308C41.5434 15.5308 41.6855 15.4597 41.7565 15.3886C41.9695 15.1753 42.0405 14.8199 41.8275 14.6066C37.5666 9.77251 31.3884 7 24.9971 7C19.5289 7 14.2029 8.99052 10.155 12.6161C9.94199 12.8294 9.87097 13.1848 10.084 13.3981C10.2971 13.6114 10.6521 13.6825 10.8652 13.4692Z" fill="#667085"/>
    <path d="M41.7565 42.6872C37.6377 47.8768 31.5305 50.8626 24.9971 50.8626C18.8189 50.8626 12.9247 48.1611 8.87684 43.5403C8.66379 43.327 8.30872 43.2559 8.09568 43.4692C7.88263 43.6825 7.81162 44.0379 8.02466 44.2512C12.2855 49.1564 18.4638 52 24.9971 52C31.9566 52 38.3479 48.872 42.6797 43.3981C42.8928 43.1848 42.8218 42.7583 42.6087 42.6161C42.3247 42.4029 41.9696 42.4739 41.7565 42.6872Z" fill="#667085"/>
    <path fill-rule="evenodd" clip-rule="evenodd" d="M28.1928 47.1658H21.8725C20.1682 47.1658 18.7479 45.815 18.8189 44.1089V43.0425C13.5638 40.6255 10.1551 35.2937 10.1551 29.5354C10.1551 23.7772 13.5638 18.4454 18.8189 16.0284V14.962C18.8189 13.2558 20.1682 11.9051 21.8725 11.9051H28.1928C29.8971 11.9051 31.2464 13.2558 31.2464 14.962V16.0284C36.5015 18.4454 39.9102 23.7772 39.9102 29.5354C39.9102 35.3648 36.5015 40.6255 31.2464 43.0425V44.1089C31.2464 45.815 29.8971 47.1658 28.1928 47.1658ZM21.8725 46.0283H28.1928C29.258 46.0283 30.1102 45.1752 30.1102 44.1089V30.1042C30.0392 30.0331 29.8971 30.0331 29.8261 30.0331H19.9551V44.1089C19.9551 45.1752 20.8073 46.0283 21.8725 46.0283ZM31.2464 41.7629C35.8624 39.417 38.774 34.725 38.774 29.5354C38.774 24.3459 35.8624 19.5829 31.3174 17.2369V28.1847C32.8797 27.1184 35.3653 25.6255 36.8566 26.3364C37.6377 26.6918 37.9928 27.4738 38.0638 28.6113C38.0638 29.8198 37.7087 30.6729 36.9276 31.1705C36.4305 31.4549 35.7913 31.5971 35.1522 31.5971C33.8029 31.5971 32.2406 31.0994 31.2464 30.6729V41.7629ZM36.3595 27.4738C35.4363 27.0473 33.1638 28.2558 31.4595 29.5354C33.0218 30.1753 35.2942 30.8151 36.2884 30.3174C36.3041 30.3017 36.3241 30.2843 36.3472 30.2642C36.5332 30.1021 36.9197 29.7654 36.8566 28.7535C36.8566 28.0426 36.7145 27.616 36.3595 27.4738ZM28.1928 12.9715H21.8725C20.7363 12.9715 19.8841 13.8246 19.8841 14.8909V28.8956H25.8493C24.9971 28.398 24.358 27.8293 24.074 27.1184C23.8609 26.5497 23.7189 25.5544 24.6421 24.417C25.4232 23.4928 26.2044 23.4217 26.7015 23.4928C28.1218 23.7772 29.329 25.8388 30.1102 27.4738V14.8909C30.1102 13.8246 29.258 12.9715 28.1928 12.9715ZM25.1392 26.7629C25.4232 27.5449 26.7725 28.4691 29.4711 28.8956C28.7609 27.0473 27.5537 24.8435 26.4884 24.6302H26.3464C26.1334 24.6302 25.8493 24.7724 25.4942 25.199C25.0682 25.7677 24.9261 26.2653 25.1392 26.7629ZM18.8189 17.308C14.2029 19.6539 11.2913 24.3459 11.2913 29.5354C11.2913 34.6539 14.2029 39.4169 18.8189 41.834V17.308Z" fill="#667085"/>
    <path fill-rule="evenodd" clip-rule="evenodd" d="M49 46.5972V10.1991C49 9.98586 48.929 9.84368 48.787 9.7015C48.6449 9.63041 48.4319 9.55932 48.2899 9.63041C48.0768 9.7015 43.6029 11.4077 43.1058 21.5024C42.8217 27.6873 44.3841 32.6636 44.6681 33.5166L43.887 46.5972C43.887 46.6175 43.8863 46.6417 43.8856 46.6693C43.8786 46.9318 43.8633 47.5045 44.313 48.019C44.7391 48.5877 45.5203 48.801 46.5145 48.801C47.3667 48.801 48.0768 48.5877 48.5029 48.0901C49 47.5214 49 46.8105 49 46.5972ZM47.5797 47.3792C47.3667 47.5924 46.9406 47.7346 46.4435 47.7346C45.8043 47.7346 45.3783 47.5924 45.1652 47.3081C44.9522 47.0948 45.0232 46.7394 45.0232 46.7394V46.6683L45.8043 33.4455V33.2323C45.8043 33.2259 45.7895 33.1784 45.7627 33.0926C45.4901 32.22 43.9835 27.3972 44.242 21.5735C44.5971 14.8911 46.7275 12.1896 47.8638 11.1944V46.6683C47.8638 46.6683 47.8638 47.0948 47.5797 47.3792Z" fill="#667085"/>
    <path d="M3.55066 21.6445C3.55066 21.9289 3.2666 22.2133 2.98254 22.2133C2.62747 22.2133 2.41442 21.9289 2.41442 21.6445V10.7678C2.41442 10.4123 2.69848 10.199 2.98254 10.199C3.2666 10.199 3.55066 10.4834 3.55066 10.7678V21.6445Z" fill="#667085"/>
    <path d="M8.37971 22.4265V10.7678C8.37971 10.4834 8.09565 10.199 7.81159 10.199C7.52754 10.199 7.24348 10.4834 7.24348 10.7678V22.4976C7.24348 22.4976 7.24348 24.8436 5.25507 25.4834C5.04203 25.5545 4.82899 25.7677 4.82899 26.0521L5.61015 45.8862C5.61015 45.8862 5.61015 46.8104 5.11304 47.308C4.9 47.5213 4.54493 47.6635 4.18986 47.6635C3.76377 47.6635 3.47971 47.5213 3.26667 47.308C2.76957 46.8104 2.76957 45.8862 2.76957 45.8862L3.55072 25.981C3.55072 25.6967 3.4087 25.4834 3.12464 25.4123C1.13623 24.7725 1.13623 22.4976 1.13623 22.4265V10.7678C1.13623 10.4834 0.852174 10.199 0.568116 10.199C0.284058 10.199 0 10.4123 0 10.7678V22.4976C0 23.564 0.497102 25.6256 2.41449 26.4076L1.63333 45.8151C1.63333 45.8862 1.63333 47.2369 2.41449 48.09C2.84058 48.5165 3.47971 48.8009 4.18986 48.8009C4.9 48.8009 5.46812 48.5876 5.96522 48.09C6.7813 47.273 6.75074 45.9997 6.74668 45.8309L6.74638 45.8151L5.96522 26.4076C7.88261 25.5545 8.37971 23.4929 8.37971 22.4265Z" fill="#667085"/>
    <path d="M5.96525 21.6445C5.96525 21.9289 5.68119 22.2133 5.39714 22.2133C5.04206 22.2133 4.82902 21.9289 4.82902 21.6445V10.7678C4.82902 10.4834 5.11308 10.199 5.39714 10.199C5.68119 10.199 5.96525 10.4834 5.96525 10.7678V21.6445Z" fill="#667085"/>
    <path d="M28.1928 46.0283H21.8725C20.8073 46.0283 19.9551 45.1752 19.9551 44.1089V30.0331H29.8261C29.8971 30.0331 30.0392 30.0331 30.1102 30.1042V44.1089C30.1102 45.1752 29.258 46.0283 28.1928 46.0283Z" fill="#98A2B3"/>
    <path d="M21.8725 12.9715H28.1928C29.258 12.9715 30.1102 13.8246 30.1102 14.8909V27.4738C29.329 25.8388 28.1218 23.7772 26.7015 23.4928C26.2044 23.4217 25.4232 23.4928 24.6421 24.417C23.7189 25.5544 23.8609 26.5497 24.074 27.1184C24.358 27.8293 24.9971 28.398 25.8493 28.8956H19.8841V14.8909C19.8841 13.8246 20.7363 12.9715 21.8725 12.9715Z" fill="#98A2B3"/>
    <path d="M55 91.75C55 91.75 57.4375 95 61.5 95C65.5625 95 68 91.75 68 91.75M69.625 84.015C68.9831 84.8031 68.1056 85.25 67.1875 85.25C66.2694 85.25 65.4162 84.8031 64.75 84.015M58.25 84.015C57.6081 84.8031 56.7306 85.25 55.8125 85.25C54.8944 85.25 54.0412 84.8031 53.375 84.015M77.75 88.5C77.75 97.4746 70.4746 104.75 61.5 104.75C52.5254 104.75 45.25 97.4746 45.25 88.5C45.25 79.5254 52.5254 72.25 61.5 72.25C70.4746 72.25 77.75 79.5254 77.75 88.5Z" stroke="#667085" stroke-width="1.2" stroke-linecap="round" stroke-linejoin="round"/>
    <path d="M385 21.75C385 21.75 387.438 25 391.5 25C395.562 25 398 21.75 398 21.75M399.625 14.015C398.983 14.8031 398.106 15.25 397.188 15.25C396.269 15.25 395.416 14.8031 394.75 14.015M388.25 14.015C387.608 14.8031 386.731 15.25 385.812 15.25C384.894 15.25 384.041 14.8031 383.375 14.015M407.75 18.5C407.75 27.4746 400.475 34.75 391.5 34.75C382.525 34.75 375.25 27.4746 375.25 18.5C375.25 9.52537 382.525 2.25 391.5 2.25C400.475 2.25 407.75 9.52537 407.75 18.5Z" stroke="#667085" stroke-width="1.2" stroke-linecap="round" stroke-linejoin="round"/>
    <path fill-rule="evenodd" clip-rule="evenodd" d="M216.991 62.4198C214.492 59.498 210.325 58.7121 207.193 61.3875C204.062 64.063 203.621 68.5362 206.08 71.7005C208.125 74.3314 214.312 79.8801 216.34 81.676C216.567 81.877 216.68 81.9774 216.813 82.0169C216.928 82.0514 217.055 82.0514 217.17 82.0169C217.302 81.9774 217.416 81.877 217.643 81.676C219.671 79.8801 225.858 74.3314 227.903 71.7005C230.362 68.5362 229.975 64.0348 226.79 61.3875C223.604 58.7402 219.491 59.498 216.991 62.4198Z" stroke="#667085" stroke-width="1.2" stroke-linecap="round" stroke-linejoin="round"/>
    <path fill-rule="evenodd" clip-rule="evenodd" d="M86.9914 2.41977C84.4922 -0.502 80.3247 -1.28795 77.1934 1.38752C74.0621 4.06298 73.6212 8.53622 76.0802 11.7005C78.1248 14.3314 84.3122 19.8801 86.3401 21.676C86.567 21.877 86.6804 21.9774 86.8128 22.0169C86.9283 22.0514 87.0546 22.0514 87.1701 22.0169C87.3024 21.9774 87.4159 21.877 87.6428 21.676C89.6707 19.8801 95.8581 14.3314 97.9026 11.7005C100.362 8.53622 99.9746 4.03484 96.7895 1.38752C93.6044 -1.2598 89.4906 -0.502 86.9914 2.41977Z" stroke="#667085" stroke-width="1.2" stroke-linecap="round" stroke-linejoin="round"/>
</svg>
