<svg width="428" height="104" viewBox="0 0 428 104" fill="none" xmlns="http://www.w3.org/2000/svg">
    <path fill-rule="evenodd" clip-rule="evenodd" d="M403.833 70.0832C403.833 75.4219 408.666 79.7498 413.499 84.5832C418.333 79.7498 423.166 75.4219 423.166 70.0832C423.166 64.7444 418.838 60.4165 413.499 60.4165C408.161 60.4165 403.833 64.7444 403.833 70.0832ZM413.499 73.7082C411.497 73.7082 409.874 72.0852 409.874 70.0832C409.874 68.0811 411.497 66.4582 413.499 66.4582C415.501 66.4582 417.124 68.0811 417.124 70.0832C417.124 72.0852 415.501 73.7082 413.499 73.7082Z" fill="#98A2B3" stroke="#667085" stroke-width="1.2" stroke-linecap="round" stroke-linejoin="round"/>
    <path d="M214.482 88.4944L211.395 72.544L203.142 74.0817M214.482 88.4944L216.54 99.1279L172.251 107.284L170.375 96.7421M214.482 88.4944L202.432 90.7477M170.375 96.7421L167.524 80.7181L170.055 80.2465M170.375 96.7421L182 94.5684M213.882 85.1209L202.582 87.2339M169.775 93.3687L180.884 91.2914M213.319 81.9582L201.273 84.2108M169.212 90.206L181.024 87.9973M175.961 79.1462L178.324 72.8086L198.153 69.0503L200.647 71.566M175.961 79.1462L203.142 74.0817M175.961 79.1462L174.696 79.382M203.142 74.0817L200.647 71.566M174.696 79.382L173.986 76.3901L169.338 77.4475L170.055 80.2465M174.696 79.382L170.055 80.2465M200.647 71.566L188.731 74.0891" stroke="#667085" stroke-width="1.2" stroke-linecap="round" stroke-linejoin="round"/>
    <circle cx="191.849" cy="89.2875" r="10.2708" transform="rotate(2.44019 191.849 89.2875)" stroke="#667085" stroke-width="1.2" stroke-linecap="round" stroke-linejoin="round"/>
    <path d="M198.769 89.5827C198.606 93.4043 195.376 96.3703 191.554 96.2074C187.733 96.0446 184.767 92.8145 184.929 88.9929C185.092 85.1713 188.322 82.2053 192.144 82.3681C195.966 82.531 198.932 85.761 198.769 89.5827Z" stroke="#667085" stroke-width="1.2" stroke-linecap="round" stroke-linejoin="round"/>
    <path d="M414.482 8.49435L411.395 -7.45599L403.142 -5.91825M414.482 8.49435L416.54 19.1279L372.251 27.2842L370.375 16.7421M414.482 8.49435L402.432 10.7477M370.375 16.7421L367.524 0.71813L370.055 0.246547M370.375 16.7421L382 14.5684M413.882 5.12088L402.582 7.23395M369.775 13.3687L380.884 11.2914M413.319 1.95825L401.273 4.21083M369.212 10.206L381.024 7.99727M375.961 -0.853816L378.324 -7.1914L398.153 -10.9497L400.647 -8.43399M375.961 -0.853816L403.142 -5.91825M375.961 -0.853816L374.696 -0.618024M403.142 -5.91825L400.647 -8.43399M374.696 -0.618024L373.986 -3.60986L369.338 -2.55249L370.055 0.246547M374.696 -0.618024L370.055 0.246547M400.647 -8.43399L388.731 -5.9109" stroke="#667085" stroke-width="1.2" stroke-linecap="round" stroke-linejoin="round"/>
    <circle cx="391.849" cy="9.28752" r="10.2708" transform="rotate(2.44019 391.849 9.28752)" stroke="#667085" stroke-width="1.2" stroke-linecap="round" stroke-linejoin="round"/>
    <circle cx="391.849" cy="9.28778" r="6.92593" transform="rotate(2.44019 391.849 9.28778)" stroke="#667085" stroke-width="1.2" stroke-linecap="round" stroke-linejoin="round"/>
    <circle cx="94.838" cy="14.9708" r="11.5251" fill="#98A2B3" stroke="#667085" stroke-width="1.2"/>
    <circle cx="121.596" cy="28.3502" r="11.5251" fill="#98A2B3" stroke="#667085" stroke-width="1.2"/>
    <circle cx="94.8372" cy="14.9708" r="9.01647" fill="#EDEFF2" stroke="#667085" stroke-width="1.2"/>
    <circle cx="121.595" cy="28.3502" r="9.01647" fill="#EDEFF2" stroke="#667085" stroke-width="1.2"/>
    <path d="M105.29 20.4062C106.544 20.4062 109.471 20.9916 111.143 23.333M132.885 32.1132L135.812 34.2037L134.139 37.5486L131.212 35.4581M85.2206 8.28109L81.8757 6.19055L79.7852 9.95352L83.13 12.0441" stroke="#667085" stroke-width="1.2" stroke-linecap="square"/>
    <path d="M275.82 134.92C276.812 134.153 279.485 132.825 282.241 133.654M304.81 127.295L308.404 127.157L309.128 130.826L305.534 130.964M252.527 137.61L248.603 138.004L249.252 142.259L253.177 141.866M259.716 137.336L262.405 132.612M261.282 141.41L266.916 132.294M265.793 141.092L268.482 136.368M289.654 131.619L292.343 126.896M291.22 135.694L296.854 126.577M295.731 135.375L298.42 130.652" stroke="#667085" stroke-width="1.2" stroke-linecap="square"/>
    <path d="M63.948 56.25H47.048C44.3178 56.25 42.9527 56.25 41.9098 56.7813C40.9926 57.2487 40.2468 57.9945 39.7794 58.9118C39.248 59.9546 39.248 61.3197 39.248 64.05V68.4375C39.248 69.1926 39.248 69.5701 39.3105 69.884C39.5669 71.1733 40.5748 72.1811 41.864 72.4376C42.1779 72.5 42.5555 72.5 43.3105 72.5H44.123C45.918 72.5 47.373 71.0449 47.373 69.25C47.373 68.8013 47.7368 68.4375 48.1855 68.4375H62.8105C63.2593 68.4375 63.623 68.8013 63.623 69.25C63.623 71.0449 65.0781 72.5 66.873 72.5H67.6855C68.4406 72.5 68.8181 72.5 69.1321 72.4376C70.4213 72.1811 71.4292 71.1733 71.6856 69.884C71.748 69.5701 71.748 69.1926 71.748 68.4375V64.05C71.748 61.3197 71.748 59.9546 71.2167 58.9118C70.7493 57.9945 70.0035 57.2487 69.0863 56.7813C68.0434 56.25 66.6783 56.25 63.948 56.25Z" fill="#98A2B3"/>
    <path d="M44.123 61.125H48.998M39.248 54.625L42.498 56.25L44.5628 50.0556C44.989 48.777 45.2021 48.1377 45.5974 47.6651C45.9464 47.2477 46.3947 46.9246 46.901 46.7255C47.4744 46.5 48.1483 46.5 49.496 46.5H61.5001C62.8478 46.5 63.5217 46.5 64.0951 46.7255C64.6014 46.9246 65.0497 47.2477 65.3987 47.6651C65.794 48.1377 66.0071 48.777 66.4333 50.0556L68.498 56.25L71.748 54.625M61.998 61.125H66.873M47.048 56.25H63.948C66.6783 56.25 68.0434 56.25 69.0863 56.7813C70.0035 57.2487 70.7493 57.9945 71.2167 58.9118C71.748 59.9546 71.748 61.3197 71.748 64.05V68.4375C71.748 69.1926 71.748 69.5701 71.6856 69.884C71.4292 71.1733 70.4213 72.1811 69.1321 72.4376C68.8181 72.5 68.4406 72.5 67.6855 72.5H66.873C65.0781 72.5 63.623 71.0449 63.623 69.25C63.623 68.8013 63.2593 68.4375 62.8105 68.4375H48.1855C47.7368 68.4375 47.373 68.8013 47.373 69.25C47.373 71.0449 45.918 72.5 44.123 72.5H43.3105C42.5555 72.5 42.1779 72.5 41.864 72.4376C40.5748 72.1811 39.5669 71.1733 39.3105 69.884C39.248 69.5701 39.248 69.1926 39.248 68.4375V64.05C39.248 61.3197 39.248 59.9546 39.7794 58.9118C40.2468 57.9945 40.9926 57.2487 41.9098 56.7813C42.9527 56.25 44.3178 56.25 47.048 56.25Z" stroke="#667085" stroke-width="1.2" stroke-linecap="round" stroke-linejoin="round"/>
    <path d="M236.048 10.25H252.948C255.678 10.25 257.043 10.25 258.086 10.7813C259.004 11.2487 259.749 11.9945 260.217 12.9118C260.748 13.9546 260.748 15.3197 260.748 18.05V22.4375C260.748 23.1926 260.748 23.5701 260.686 23.884C260.429 25.1733 259.421 26.1811 258.132 26.4376C257.818 26.5 257.441 26.5 256.686 26.5H255.873C254.078 26.5 252.623 25.0449 252.623 23.25C252.623 22.8013 252.259 22.4375 251.811 22.4375H237.186C236.737 22.4375 236.373 22.8013 236.373 23.25C236.373 25.0449 234.918 26.5 233.123 26.5H232.311C231.555 26.5 231.178 26.5 230.864 26.4376C229.575 26.1811 228.567 25.1733 228.31 23.884C228.248 23.5701 228.248 23.1926 228.248 22.4375V18.05C228.248 15.3197 228.248 13.9546 228.779 12.9118C229.247 11.9945 229.993 11.2487 230.91 10.7813C231.953 10.25 233.318 10.25 236.048 10.25Z" fill="#98A2B3"/>
    <path d="M233.123 15.125H237.998M228.248 8.625L231.498 10.25L233.563 4.05562C233.989 2.77703 234.202 2.13774 234.597 1.66509C234.946 1.24772 235.395 0.924648 235.901 0.72551C236.474 0.5 237.148 0.5 238.496 0.5H250.5C251.848 0.5 252.522 0.5 253.095 0.72551C253.601 0.924648 254.05 1.24772 254.399 1.66509C254.794 2.13774 255.007 2.77703 255.433 4.05562L257.498 10.25L260.748 8.625M250.998 15.125H255.873M236.048 10.25H252.948C255.678 10.25 257.043 10.25 258.086 10.7813C259.004 11.2487 259.749 11.9945 260.217 12.9118C260.748 13.9546 260.748 15.3197 260.748 18.05V22.4375C260.748 23.1926 260.748 23.5701 260.686 23.884C260.429 25.1733 259.421 26.1811 258.132 26.4376C257.818 26.5 257.441 26.5 256.686 26.5H255.873C254.078 26.5 252.623 25.0449 252.623 23.25C252.623 22.8013 252.259 22.4375 251.811 22.4375H237.186C236.737 22.4375 236.373 22.8013 236.373 23.25C236.373 25.0449 234.918 26.5 233.123 26.5H232.311C231.555 26.5 231.178 26.5 230.864 26.4376C229.575 26.1811 228.567 25.1733 228.31 23.884C228.248 23.5701 228.248 23.1926 228.248 22.4375V18.05C228.248 15.3197 228.248 13.9546 228.779 12.9118C229.247 11.9945 229.993 11.2487 230.91 10.7813C231.953 10.25 233.318 10.25 236.048 10.25Z" stroke="#667085" stroke-width="1.2" stroke-linecap="round" stroke-linejoin="round"/>
    <path d="M339.948 56.25H323.048C320.318 56.25 318.953 56.25 317.91 56.7813C316.993 57.2487 316.247 57.9945 315.779 58.9118C315.248 59.9546 315.248 61.3197 315.248 64.05V68.4375C315.248 69.1926 315.248 69.5701 315.31 69.884C315.567 71.1733 316.575 72.1811 317.864 72.4376C318.178 72.5 318.555 72.5 319.311 72.5H320.123C321.918 72.5 323.373 71.0449 323.373 69.25C323.373 68.8013 323.737 68.4375 324.186 68.4375H338.811C339.259 68.4375 339.623 68.8013 339.623 69.25C339.623 71.0449 341.078 72.5 342.873 72.5H343.686C344.441 72.5 344.818 72.5 345.132 72.4376C346.421 72.1811 347.429 71.1733 347.686 69.884C347.748 69.5701 347.748 69.1926 347.748 68.4375V64.05C347.748 61.3197 347.748 59.9546 347.217 58.9118C346.749 57.9945 346.004 57.2487 345.086 56.7813C344.043 56.25 342.678 56.25 339.948 56.25Z" fill="#98A2B3"/>
    <path d="M320.123 61.125H324.998M315.248 54.625L318.498 56.25L320.563 50.0556C320.989 48.777 321.202 48.1377 321.597 47.6651C321.946 47.2477 322.395 46.9246 322.901 46.7255C323.474 46.5 324.148 46.5 325.496 46.5H337.5C338.848 46.5 339.522 46.5 340.095 46.7255C340.601 46.9246 341.05 47.2477 341.399 47.6651C341.794 48.1377 342.007 48.777 342.433 50.0556L344.498 56.25L347.748 54.625M337.998 61.125H342.873M323.048 56.25H339.948C342.678 56.25 344.043 56.25 345.086 56.7813C346.004 57.2487 346.749 57.9945 347.217 58.9118C347.748 59.9546 347.748 61.3197 347.748 64.05V68.4375C347.748 69.1926 347.748 69.5701 347.686 69.884C347.429 71.1733 346.421 72.1811 345.132 72.4376C344.818 72.5 344.441 72.5 343.686 72.5H342.873C341.078 72.5 339.623 71.0449 339.623 69.25C339.623 68.8013 339.259 68.4375 338.811 68.4375H324.186C323.737 68.4375 323.373 68.8013 323.373 69.25C323.373 71.0449 321.918 72.5 320.123 72.5H319.311C318.555 72.5 318.178 72.5 317.864 72.4376C316.575 72.1811 315.567 71.1733 315.31 69.884C315.248 69.5701 315.248 69.1926 315.248 68.4375V64.05C315.248 61.3197 315.248 59.9546 315.779 58.9118C316.247 57.9945 316.993 57.2487 317.91 56.7813C318.953 56.25 320.318 56.25 323.048 56.25Z" stroke="#667085" stroke-width="1.2" stroke-linecap="round" stroke-linejoin="round"/>
    <path d="M413.5 93.5002C378.166 94.1668 302 93.5002 270.5 74.5002C237.148 54.3834 231 43.0002 187.5 39.0002C130.183 33.7297 112.974 74.898 84.4997 89.5002C64.9997 99.5002 16.9997 95.5002 5.99969 63.5002C2.27889 52.676 0.676752 48.7361 1.5 41.5001" stroke="#667085" stroke-width="1.2" stroke-linecap="round" stroke-dasharray="5 5"/>
    <circle cx="413" cy="93" r="3.4" fill="#EDEFF2" stroke="#667085" stroke-width="1.2"/>
</svg>
